<?xml version="1.0" encoding="utf-8"?>
<!-- Generator: Adobe Illustrator 16.0.0, SVG Export Plug-In . SVG Version: 6.00 Build 0)  -->
<!DOCTYPE svg PUBLIC "-//W3C//DTD SVG 1.1//EN" "http://www.w3.org/Graphics/SVG/1.1/DTD/svg11.dtd">
<svg version="1.1" id="Layer_1" xmlns="http://www.w3.org/2000/svg" xmlns:xlink="http://www.w3.org/1999/xlink" x="0px" y="0px"
	 width="400px" height="300px" viewBox="0 0 400 300" enable-background="new 0 0 400 300" xml:space="preserve">
<g>
	<polygon fill="#30A4C4" points="385.975,13.997 14.025,13.997 14.025,286.003 310.416,286.003 385.975,210.592 	"/>
	<path fill="#FFF0D9" d="M385.975,13.997v196.595l-75.559,75.411H14.025V13.997H385.975 M400,0h-14.025H14.025H0v13.997v272.006V300
		h14.025h296.391h5.809l4.109-4.099l75.559-75.411l4.107-4.102v-5.797V13.997V0L400,0z"/>
</g>
<rect x="45.118" y="48.051" fill="#FFF0D9" width="186.522" height="13.997"/>
<rect x="329.621" y="48.051" fill="#FFF0D9" width="19.996" height="13.997"/>
<g>
	<rect x="258.65" y="108.913" fill="#FFF0D9" width="93.262" height="7.999"/>
	<rect x="258.65" y="91.583" fill="#FFF0D9" width="93.262" height="7.999"/>
	<rect x="258.65" y="124.658" fill="#FFF0D9" width="51.975" height="7.999"/>
</g>
<g>
	<rect x="258.65" y="172.295" fill="#FFF0D9" width="93.262" height="7.998"/>
	<rect x="258.65" y="154.966" fill="#FFF0D9" width="93.262" height="7.999"/>
	<rect x="258.65" y="188.041" fill="#FFF0D9" width="51.975" height="7.999"/>
</g>
<g>
	<rect x="258.65" y="235.678" fill="#FFF0D9" width="93.262" height="7.999"/>
	<rect x="258.65" y="218.349" fill="#FFF0D9" width="93.262" height="7.998"/>
	<rect x="258.65" y="251.423" fill="#FFF0D9" width="51.975" height="7.999"/>
</g>
<path fill="#FFF0D9" d="M216.385,164.004H64.839c-2.92,0-5.534-1.814-6.556-4.55c-1.022-2.736-0.237-5.819,1.968-7.734
	l75.774-65.776c2.634-2.284,6.545-2.283,9.176,0l75.771,65.776c2.207,1.915,2.992,4.998,1.969,7.734
	C221.92,162.189,219.307,164.004,216.385,164.004z M83.578,150.006h114.069l-57.034-49.509L83.578,150.006z"/>
<path fill="#FFF0D9" d="M194.171,256.984H87.055c-3.865,0-6.999-3.134-6.999-6.997v-92.982c0-3.865,3.133-6.999,6.999-6.999h107.116
	c3.865,0,6.999,3.133,6.999,6.999v92.982C201.17,253.851,198.036,256.984,194.171,256.984z M94.054,242.988h93.118v-78.984H94.054
	V242.988z"/>
<path fill="#FFF0D9" d="M159.656,256.984h-38.085c-3.865,0-6.999-3.134-6.999-6.997v-67.964c0-3.864,3.134-6.998,6.999-6.998h38.085
	c3.865,0,6.998,3.134,6.998,6.998v67.964C166.653,253.851,163.521,256.984,159.656,256.984z M128.569,242.988h24.087v-53.966
	h-24.087V242.988z"/>
<g>
	<polyline fill="#30A4C4" points="386.533,209.668 310.199,209.668 310.199,286.003 	"/>
	<polygon fill="#FFF0D9" points="317.197,293.001 303.201,293.001 303.201,202.67 393.531,202.67 393.531,216.667 317.197,216.667 	
		"/>
</g>
<g>
</g>
<g>
</g>
<g>
</g>
<g>
</g>
<g>
</g>
<g>
</g>
<g>
</g>
<g>
</g>
<g>
</g>
<g>
</g>
<g>
</g>
<g>
</g>
<g>
</g>
<g>
</g>
<g>
</g>
</svg>
