<?xml version="1.0" encoding="utf-8"?>
<!-- Generator: Adobe Illustrator 16.0.0, SVG Export Plug-In . SVG Version: 6.00 Build 0)  -->
<!DOCTYPE svg PUBLIC "-//W3C//DTD SVG 1.1//EN" "http://www.w3.org/Graphics/SVG/1.1/DTD/svg11.dtd">
<svg version="1.1" id="Layer_2" xmlns="http://www.w3.org/2000/svg" xmlns:xlink="http://www.w3.org/1999/xlink" x="0px" y="0px"
	 width="400px" height="300px" viewBox="0 0 400 300" enable-background="new 0 0 400 300" xml:space="preserve">
<g>
	<path fill="#FFF0D9" d="M245.055,250.185h3.939l3.707,15.407h0.058l3.881-15.407h3.938l-5.531,20.91h-4.46L245.055,250.185z"/>
	<path fill="#FFF0D9" d="M269.321,271.095l-0.231-1.304c-1.448,0.985-2.81,1.594-4.692,1.594c-2.722,0-4.083-1.94-4.083-3.997
		c0-3.417,2.78-5.213,8.63-5.908v-1.274c0-1.158-0.927-1.795-2.2-1.795c-1.681,0-2.607,0.897-3.302,1.854l-2.317-1.767
		c0.927-1.594,3.418-2.81,5.619-2.752c4.054,0.087,5.792,1.564,5.792,6.082v7.096c0,0.753,0.058,1.506,0.289,2.172H269.321z
		 M268.944,263.884c-2.403,0.463-5.039,0.955-5.039,3.069c0,1.13,0.725,1.767,1.738,1.767c1.129,0,2.548-0.955,3.301-1.593V263.884z
		"/>
	<path fill="#FFF0D9" d="M276.501,271.095v-20.91h3.591v20.91H276.501z"/>
	<path fill="#FFF0D9" d="M296.569,256.035v15.06h-3.302v-1.622c-1.332,0.927-2.867,1.912-4.634,1.912c-3.012,0-4.46-1.97-4.46-5.04
		v-10.31h3.591v9.789c0,2.027,0.638,2.664,1.854,2.664c1.564,0,2.752-0.897,3.36-1.593v-10.86H296.569z"/>
	<path fill="#FFF0D9" d="M302.706,264.145c0.058,3.127,1.448,4.344,3.128,4.344s2.462-0.753,3.359-1.796l2.606,1.622
		c-1.39,2.144-3.417,3.07-6.313,3.07c-3.909,0-6.371-3.041-6.371-7.82c0-4.778,2.462-7.819,6.545-7.819
		c3.938-0.028,6.14,3.302,6.14,6.922v1.478H302.706z M308.498,261.711c-0.058-2.085-1.158-3.301-2.896-3.301
		c-1.738,0-2.839,1.216-2.896,3.301H308.498z"/>
</g>
<g>
	<path fill="#FFF0D9" d="M170.767,50.483v-20.91h3.997v9.297l6.979-9.297h4.605l-5.938,7.849l6.893,13.062h-4.431l-5.184-9.934
		l-2.926,3.649v6.285H170.767z"/>
	<path fill="#FFF0D9" d="M192.107,43.532c0.058,3.128,1.448,4.344,3.128,4.344s2.462-0.753,3.359-1.795l2.606,1.622
		c-1.39,2.143-3.417,3.07-6.313,3.07c-3.909,0-6.371-3.041-6.371-7.819c0-4.779,2.462-7.82,6.545-7.82
		c3.938-0.029,6.14,3.302,6.14,6.922v1.477H192.107z M197.899,41.1c-0.058-2.085-1.158-3.302-2.896-3.302
		c-1.738,0-2.839,1.216-2.896,3.302H197.899z"/>
	<path fill="#FFF0D9" d="M202.589,52.916c0.55,0.116,0.984,0.116,1.506,0.116c1.245,0,1.94-0.347,2.374-1.187
		c0.348-0.724,0.58-1.159,0.58-1.767c0-0.55-0.29-1.188-0.464-1.796l-4.025-12.859h3.62l2.49,9.268h0.059l2.577-9.268h3.591
		l-4.749,15.089c-1.593,4.315-2.867,5.474-5.821,5.474c-0.869,0-1.304-0.058-1.737-0.116V52.916z"/>
</g>
<path fill="#5B5B5B" stroke="#FFF0D9" stroke-width="5" stroke-miterlimit="10" d="M353.249,207.986h-26.543v-14.1
	c0-1.718-1.396-3.115-3.115-3.115H71.888c-20.678,0-37.5-16.822-37.5-37.5c0-20.677,16.822-37.5,37.5-37.5h251.703
	c6.042,0,10.958-4.915,10.958-10.957s-4.916-10.958-10.958-10.958H71.887c-16.354,0-29.658-13.304-29.658-29.658V45.917h26.542
	v18.283c0,1.718,1.397,3.115,3.115,3.115h251.704c20.678,0,37.5,16.822,37.5,37.5c0,20.677-16.822,37.5-37.5,37.5H71.888
	c-6.042,0-10.958,4.916-10.958,10.957c0,6.042,4.916,10.958,10.958,10.958h251.703c16.354,0,29.658,13.304,29.658,29.657V207.986z"
	/>
<rect x="87.274" y="62.521" fill="#5B5B5B" stroke="#FFF0D9" stroke-width="5" stroke-miterlimit="10" width="21.226" height="34.5"/>
<rect x="283.857" y="62.521" fill="#5B5B5B" stroke="#FFF0D9" stroke-width="5" stroke-miterlimit="10" width="21.225" height="34.5"/>
<rect x="87.274" y="111.637" fill="#5B5B5B" stroke="#FFF0D9" stroke-width="5" stroke-miterlimit="10" width="21.226" height="34.498"/>
<rect x="283.857" y="111.637" fill="#5B5B5B" stroke="#FFF0D9" stroke-width="5" stroke-miterlimit="10" width="21.225" height="34.498"/>
<rect x="87.274" y="160.752" fill="#5B5B5B" stroke="#FFF0D9" stroke-width="5" stroke-miterlimit="10" width="21.226" height="34.5"/>
<rect x="283.857" y="160.752" fill="#5B5B5B" stroke="#FFF0D9" stroke-width="5" stroke-miterlimit="10" width="21.225" height="34.5"/>
<rect x="38.477" y="24.647" fill="#5B5B5B" stroke="#FFF0D9" stroke-width="5" stroke-miterlimit="10" width="34.5" height="21.225"/>
<rect x="322.829" y="206.827" fill="#5B5B5B" stroke="#FFF0D9" stroke-width="5" stroke-miterlimit="10" width="34.5" height="21.225"/>
<path fill="#30A4C4" stroke="#FFF0D9" stroke-width="5" stroke-miterlimit="10" d="M351.359,270.791
	c0,6.006-4.87,10.877-10.877,10.877s-10.878-4.871-10.878-10.877c0-6.009,10.878-27.73,10.878-27.73
	S351.359,264.782,351.359,270.791z"/>
</svg>
