<?xml version="1.0" encoding="utf-8"?>
<!-- Generator: Adobe Illustrator 16.0.0, SVG Export Plug-In . SVG Version: 6.00 Build 0)  -->
<!DOCTYPE svg PUBLIC "-//W3C//DTD SVG 1.1//EN" "http://www.w3.org/Graphics/SVG/1.1/DTD/svg11.dtd">
<svg version="1.1" id="Layer_7" xmlns="http://www.w3.org/2000/svg" xmlns:xlink="http://www.w3.org/1999/xlink" x="0px" y="0px"
	 width="400px" height="300px" viewBox="0 0 400 300" enable-background="new 0 0 400 300" xml:space="preserve">
<g>
	<polygon fill="#30A4C4" points="384.784,17.433 16.013,17.433 16.013,283.146 309.723,283.146 384.784,208.083 	"/>
	<path fill="#FFF0D9" d="M384.784,17.433v190.65l-75.062,75.062H16.013V17.433H384.784 M398.718,3.5h-13.934H16.013H2.081v13.933
		v265.712v13.933h13.932h293.71h5.771l4.082-4.079l75.062-75.063l4.08-4.082v-5.771V17.433V3.5L398.718,3.5z"/>
</g>
<path fill="#FFF0D9" d="M107.296,187.852c-1.701,0-3.405-0.621-4.744-1.866l-35.076-32.629c-1.384-1.289-2.187-3.084-2.221-4.975
	c-0.034-1.891,0.702-3.714,2.039-5.052l13.866-13.868c2.184-2.186,5.548-2.671,8.263-1.19l3.903,2.129l1.562-1.907l-1.745-8.145
	c-0.544-2.539,0.369-5.169,2.371-6.825c0.974-0.807,24.02-19.862,37.945-29.69c15.511-10.949,30.369-5.429,33.48-4.067l14.344,4.782
	c3.65,1.217,5.623,5.162,4.405,8.812c-1.216,3.649-5.163,5.623-8.812,4.405l-14.684-4.896c-0.313-0.104-0.617-0.23-0.912-0.377
	c-0.322-0.15-9.672-4.414-19.788,2.724c-10.471,7.391-26.903,20.695-33.837,26.364l1.557,7.271c0.443,2.071-0.079,4.23-1.42,5.87
	l-7.34,8.972c-2.12,2.593-5.786,3.311-8.729,1.704l-4.397-2.399l-5.074,5.075l24.869,23.135l3.445-3.444l-1.209-9.674
	c-0.406-3.251,1.51-6.349,4.604-7.436c1.074-0.389,27.139-10.177,38.089-44.487c0.912-2.736,3.451-6.151,7.929-7.792
	c6.373-2.337,14.34-0.508,24.354,5.589c3.287,2.001,4.329,6.287,2.329,9.573c-2.002,3.285-6.288,4.329-9.573,2.328
	c-7.813-4.755-11.221-4.621-12.09-4.464c-10.211,30.991-31.323,45.005-41.181,50.055l0.996,7.961
	c0.266,2.133-0.468,4.27-1.988,5.788l-10.604,10.605C110.865,187.169,109.081,187.852,107.296,187.852z"/>
<path fill="#FFF0D9" d="M227.207,269.423c-2.058,0-4.01-0.909-5.332-2.486l-85.652-101.965c-2.474-2.945-2.093-7.339,0.854-9.814
	c2.947-2.478,7.342-2.091,9.815,0.854l83.272,99.136c4.534-0.879,12.87-3.98,16.863-14.92l-97.085-87.614
	c-2.856-2.578-3.083-6.982-0.504-9.839c2.577-2.856,6.982-3.083,9.838-0.504l100.334,90.544c1.884,1.698,2.694,4.286,2.116,6.754
	C256.216,263.184,236.737,269.423,227.207,269.423z"/>
<rect x="45.865" y="45.235" fill="#FFF0D9" width="185.663" height="13.932"/>
<g>
	<rect x="258.412" y="105.816" fill="#FFF0D9" width="92.832" height="7.962"/>
	<rect x="258.412" y="88.566" fill="#FFF0D9" width="92.832" height="7.961"/>
	<rect x="258.412" y="121.489" fill="#FFF0D9" width="51.734" height="7.961"/>
</g>
<g>
	<rect x="258.412" y="168.906" fill="#FFF0D9" width="92.832" height="7.961"/>
	<rect x="258.412" y="151.657" fill="#FFF0D9" width="92.832" height="7.961"/>
	<rect x="258.412" y="184.58" fill="#FFF0D9" width="51.734" height="7.961"/>
</g>
<g>
	<polyline fill="#30A4C4" points="385.704,207.166 309.723,207.166 309.723,283.146 	"/>
	<polygon fill="#FFF0D9" points="316.688,290.112 302.756,290.112 302.756,200.2 392.671,200.2 392.671,214.132 316.688,214.132 	
		"/>
</g>
<rect x="329.055" y="45.235" fill="#FFF0D9" width="19.903" height="13.932"/>
</svg>
