<?xml version="1.0" encoding="utf-8"?>
<!-- Generator: Adobe Illustrator 16.0.0, SVG Export Plug-In . SVG Version: 6.00 Build 0)  -->
<!DOCTYPE svg PUBLIC "-//W3C//DTD SVG 1.1//EN" "http://www.w3.org/Graphics/SVG/1.1/DTD/svg11.dtd">
<svg version="1.1" id="Layer_4" xmlns="http://www.w3.org/2000/svg" xmlns:xlink="http://www.w3.org/1999/xlink" x="0px" y="0px"
	 width="400px" height="300px" viewBox="0 0 400 300" enable-background="new 0 0 400 300" xml:space="preserve">
<g>
	<g>
		<g>
			<g>
				<path fill="#30A4C4" d="M263.236,72.361l13.725-7.812c-23.274-8.256-50.273-12.926-78.232-12.926l-0.087,9.503
					C222.021,61.126,244.375,65.222,263.236,72.361z"/>
				<path fill="#FFF0D9" d="M264.719,76.025l-4.563-1.761c-18.577-7.16-40.015-10.855-61.531-10.855h-5.193l0.563-13.75h4.749
					c27.814,0,55.846,4.433,80.985,13.205l4.702,1.642L264.719,76.025z M203.713,58.968c20.092,0.473,40.05,3.826,58.023,9.927
					l7.676-4.261c-20.532-6.812-43.147-10.496-65.821-10.948L203.713,58.968z"/>
			</g>
			<g>
				<path fill="#30A4C4" d="M263.236,72.361c-18.861-7.139-41.216-11.235-64.595-11.235l-0.417,48.259L263.236,72.361z"/>
				<path fill="#FFF0D9" d="M191.169,119.011l2.449-60.101h5.044c23.491,0,46.992,3.928,67.588,11.592l4.839,1.799L191.169,119.011z
					 M203.817,63.481l0.864,37.085l50.592-28.081C239.408,67.015,221.719,63.966,203.817,63.481z"/>
			</g>
			<path fill="#FFF0D9" d="M229.885,92.349c0.392,2.512-3.209,4.604-8.05,4.604c-4.842,0-8.906-2.092-9.074-4.604
				c-0.163-2.455,3.452-4.398,8.073-4.398S229.502,89.894,229.885,92.349z"/>
			<path fill="#FFF0D9" d="M231.773,77.887c0.389,2.147-2.916,3.928-7.386,3.928c-4.468,0-8.25-1.781-8.442-3.928
				c-0.188-2.097,3.128-3.762,7.403-3.762C227.628,74.125,231.396,75.79,231.773,77.887z"/>
			<path fill="#FFF0D9" d="M244.282,68.198c0.51,1.917-2.489,3.504-6.707,3.504s-7.917-1.587-8.253-3.504
				c-0.328-1.877,2.694-3.365,6.738-3.365C240.11,64.833,243.786,66.321,244.282,68.198z"/>
			<path fill="#FFF0D9" d="M212.462,71.534c0.145,1.996-3.223,3.649-7.528,3.649c-4.302,0-7.766-1.653-7.73-3.649
				c0.032-1.952,3.402-3.499,7.527-3.499C208.858,68.036,212.316,69.582,212.462,71.534z"/>
		</g>
		<g>
			<g>
				<path fill="#30A4C4" d="M198.645,61.129l0.084-9.506c-25.96,0.278-53.238,4.636-78.066,13.834l13.684,7.902
					C154.374,65.335,176.94,61.445,198.645,61.129z"/>
				<path fill="#FFF0D9" d="M132.907,77.13l-19.68-11.673l4.557-1.659c24.937-9.089,52.93-13.84,80.834-14.139l4.874-0.055
					l0.322,13.73l-5.016,0.075c-21.574,0.319-42.919,4.343-61.227,11.815L132.907,77.13z M128.167,65.498l7.644,4.302
					c17.78-6.382,37.668-10.017,57.801-10.766l0.214-5.294C171.095,54.459,148.526,58.414,128.167,65.498z"/>
			</g>
			<g>
				<path fill="#30A4C4" d="M198.645,61.129c-21.705,0.316-44.271,4.206-64.298,12.23l63.869,36.888L198.645,61.129z"/>
				<path fill="#FFF0D9" d="M205.131,119.959l-78.574-46.601l4.636-1.822c20.333-8.003,43.751-12.285,67.304-12.627l5.213-0.073
					L205.131,119.959z M142.236,73.417l49.649,27.944l1.54-37.799C175.504,64.334,157.896,67.667,142.236,73.417z"/>
			</g>
			<path fill="#FFF0D9" d="M199.617,86.152c3.257,1.66,3.304,4.416-0.015,6.156c-3.379,1.772-8.851,1.772-12.105,0
				c-3.197-1.74-2.971-4.496,0.4-6.156C191.212,84.524,196.411,84.524,199.617,86.152z"/>
			<path fill="#FFF0D9" d="M183.389,74.96c2.924,1.462,2.739,3.89-0.519,5.422c-3.31,1.552-8.439,1.552-11.349-0.006
				c-2.866-1.529-2.437-3.957,0.859-5.416C175.626,73.519,180.511,73.519,183.389,74.96z"/>
			<path fill="#FFF0D9" d="M180.54,63.716c2.712,1.282,2.495,3.4-0.565,4.734c-3.113,1.355-7.896,1.355-10.594,0
				c-2.657-1.334-2.234-3.452,0.87-4.734C173.299,62.458,177.874,62.458,180.54,63.716z"/>
			<path fill="#FFF0D9" d="M160.443,76.73c2.758,1.494,2.245,3.971-1.245,5.532c-3.557,1.59-8.735,1.59-11.473,0
				c-2.689-1.561-1.929-4.038,1.601-5.532C152.796,75.259,157.733,75.259,160.443,76.73z"/>
		</g>
		<g>
			<g>
				<path fill="#30A4C4" d="M134.346,73.359l-13.684-7.902c-25.392,9.825-48.399,25.116-62.091,45.402h30.152
					C97.374,94.57,114.399,81.815,134.346,73.359z"/>
				<path fill="#FFF0D9" d="M93.466,114.798h-44.39l2.782-3.939c14.446-20.431,38.106-36.479,65.81-47.018l4.508-1.714
					l19.854,11.174l-4.305,1.863c-19.584,8.456-34.86,20.805-42.292,35.695L93.466,114.798z M67.877,107.065h16.451
					c9.077-13.797,24.066-25.276,42.408-33.599l-7.577-4.491C97.58,78.166,79.446,91.136,67.877,107.065z"/>
			</g>
			<g>
				<path fill="#30A4C4" d="M134.346,73.359c-19.947,8.457-36.972,21.211-45.623,37.5H199.28L134.346,73.359z"/>
				<path fill="#FFF0D9" d="M215.771,114.798H79.794l2.219-3.939c9.332-16.573,27.025-30.105,49.025-39.261l4.581-1.906
					L215.771,114.798z M97.528,107.065h85.861l-50.264-29.807C117.381,84.812,104.829,95.011,97.528,107.065z"/>
			</g>
			<path fill="#FFF0D9" d="M169.522,92.67c4.74,0,8.346,2.042,8.05,4.624c-0.305,2.648-4.586,4.85-9.562,4.85
				c-4.969,0-8.552-2.202-8.012-4.85C160.53,94.712,164.788,92.67,169.522,92.67z"/>
			<path fill="#FFF0D9" d="M140.441,90.335c4.673,0,7.931,1.99,7.252,4.508c-0.702,2.584-5.263,4.729-10.168,4.729
				c-4.908,0-8.117-2.144-7.186-4.729C131.248,92.325,135.759,90.335,140.441,90.335z"/>
			<path fill="#FFF0D9" d="M121.333,82.3c4.479,0,7.4,1.825,6.504,4.128c-0.919,2.364-5.491,4.325-10.179,4.325
				c-4.691,0-7.551-1.961-6.417-4.325C112.343,84.125,116.854,82.3,121.333,82.3z"/>
			<path fill="#FFF0D9" d="M121.559,101.44c4.952,0,8.195,2.233,7.212,5.062c-1.01,2.904-6.075,5.323-11.285,5.323
				c-5.213,0-8.38-2.419-7.113-5.323C111.612,103.673,116.601,101.44,121.559,101.44z"/>
		</g>
		<g>
			<g>
				<path fill="#30A4C4" d="M88.724,110.859H58.571c-14.536,23.109-15.972,51.684,5.541,78.941l37.312-21.548
					C82.722,149.418,80.319,128.613,88.724,110.859z"/>
				<path fill="#FFF0D9" d="M59.053,200.545l-4.073-5.471c-21.147-28.418-20.01-58.67-3.188-84.111l2.576-3.898h42.745l-1.619,3.669
					c-7.658,17.345-3.82,36.488,13.483,53.155l4.534,4.362L59.053,200.545z M63.1,114.798c-10.44,20.353-9.55,43.289,5.933,64.877
					l20.512-11.546c-14.011-17.324-16.486-36.149-9.353-53.332H63.1z"/>
			</g>
			<g>
				<path fill="#30A4C4" d="M88.724,110.859c-8.404,17.754-6.002,38.559,12.7,57.393l99.367-57.39L88.724,110.859z"/>
				<path fill="#FFF0D9" d="M98.032,177.431l-4.424-4.665c-18.76-19.796-21.632-42.05-11.665-61.776l1.987-3.925h132.754
					L98.032,177.431z M93.925,114.798c-4.902,14.708-1.651,30.451,10.893,44.74l79.488-44.737L93.925,114.798z"/>
			</g>
			<path fill="#FFF0D9" d="M153.434,110.087c4.082-2.077,9.944-2.08,13.231,0c3.354,2.121,2.852,5.648-1.256,7.885
				c-4.201,2.283-10.415,2.283-13.736,0C148.418,115.735,149.271,112.208,153.434,110.087z"/>
			<path fill="#FFF0D9" d="M122.812,121.943c4.633-2.321,10.829-2.321,13.988,0c3.22,2.37,2.158,6.318-2.536,8.828
				c-4.798,2.559-11.38,2.562-14.542,0C116.627,128.262,118.081,124.313,122.812,121.943z"/>
			<path fill="#FFF0D9" d="M89.217,125.23c5.056-2.393,11.348-2.393,14.191-0.002c2.91,2.439,1.221,6.509-3.925,9.094
				c-5.265,2.643-11.955,2.643-14.766-0.006C81.961,131.737,84.044,127.667,89.217,125.23z"/>
			<path fill="#FFF0D9" d="M121.274,140.808c5.039-2.727,11.757-2.73,15.178,0c3.499,2.796,2.341,7.461-2.773,10.433
				c-5.236,3.046-12.41,3.046-15.839,0C114.495,148.269,116.117,143.604,121.274,140.808z"/>
		</g>
		<g>
			<g>
				<path fill="#30A4C4" d="M101.424,168.252L64.112,189.8c25.71,29.967,75.626,51.694,138.893,51.694l-0.352-40.357
					C158.804,201.137,122.58,187.729,101.424,168.252z"/>
				<path fill="#FFF0D9" d="M214.327,252.002h-11.229c-65.743,0-120.211-22.523-148.01-56.789l-4.282-5.273l53.548-30.135
					l4.47,3.945c20.855,18.397,54.99,29.677,93.766,29.677h9.35L214.327,252.002z M77.627,189.527
					c24.994,23.984,66.144,39.748,114.725,41.854l0.517-22.337c-38.806-1.787-72.468-13.6-94.375-31.893L77.627,189.527z"/>
			</g>
			<g>
				<path fill="#30A4C4" d="M101.424,168.252c21.156,19.477,57.38,32.885,101.229,32.885l-0.794-90.89L101.424,168.252z"/>
				<path fill="#FFF0D9" d="M212.584,209.271h-9.86c-45.898,0-85.699-13.977-108.967-36.36l-4.688-4.508l119.12-67.042
					L212.584,209.271z M114.005,167.956c19.253,14.458,47.343,23.678,79.235,25.244l1.703-73.241L114.005,167.956z"/>
			</g>
			<path fill="#FFF0D9" d="M164.188,130.797c0.551-3.53,5.462-6.312,10.986-6.312c5.526,0,9.817,2.782,9.582,6.312
				c-0.241,3.641-5.178,6.684-11.026,6.684C167.883,137.481,163.619,134.438,164.188,130.797z"/>
			<path fill="#FFF0D9" d="M154.301,155.83c0.777-4.334,6.341-7.741,12.451-7.741s10.751,3.407,10.362,7.741
				c-0.406,4.491-6.017,8.245-12.518,8.245C158.09,164.075,153.492,160.321,154.301,155.83z"/>
			<path fill="#FFF0D9" d="M126.409,179.072c1.366-5.157,7.824-9.195,14.473-9.195s11.325,4.038,10.423,9.195
				c-0.94,5.35-7.496,9.852-14.615,9.852S124.991,184.422,126.409,179.072z"/>
			<path fill="#FFF0D9" d="M180.413,170.3c0.354-4.832,5.851-8.633,12.297-8.633c6.443,0,11.731,3.801,11.81,8.633
				c0.087,5.019-5.425,9.226-12.315,9.226C185.321,179.525,180.044,175.318,180.413,170.3z"/>
		</g>
		<g>
			<g>
				<path fill="#30A4C4" d="M202.653,201.137l0.352,40.357c58.36-1.438,109.185-21.571,135.168-54.49l-37.138-21.147
					C279.667,187.387,243.118,200.034,202.653,201.137z"/>
				<path fill="#FFF0D9" d="M191.862,252.292l1.363-58.616l9.051-0.249c38.649-1.027,71.777-13.112,91.231-31.858l4.308-4.154
					l53.29,29.59l-3.847,5.175c-25.674,34.492-78.386,58.151-143.862,59.823L191.862,252.292z M212.563,208.784l0.911,22.325
					c48.256-3.308,88.155-19.93,111.557-44.228l-20.771-12.138C283.726,193.397,251.093,205.987,212.563,208.784z"/>
			</g>
			<g>
				<path fill="#30A4C4" d="M202.653,201.137c40.465-1.103,77.014-13.75,98.382-35.28l-99.179-56.471L202.653,201.137z"/>
				<path fill="#FFF0D9" d="M192.857,209.55l2.538-108.98l117.617,65.287l-4.2,4.427c-21.542,22.743-60.052,37.688-105.762,38.982
					L192.857,209.55z M208.911,119.017l3.008,73.911c31.632-2.443,58.854-12.376,76.909-27.205L208.911,119.017z"/>
			</g>
			<path fill="#FFF0D9" d="M200.588,140.422c-4.145-2.721-4.084-7.003-0.022-9.567c3.965-2.512,10.408-2.512,14.551,0
				c4.227,2.564,4.58,6.846,0.629,9.567C211.69,143.204,204.829,143.204,200.588,140.422z"/>
			<path fill="#FFF0D9" d="M225.049,162.166c-4.824-3.226-5.219-8.309-1.088-11.343c4.029-2.96,11.026-2.96,15.812,0
				c4.9,3.04,5.802,8.117,1.811,11.343C237.485,165.49,229.992,165.49,225.049,162.166z"/>
			<path fill="#FFF0D9" d="M234.984,192.435c-5.509-4.027-6.155-10.316-1.691-14.059c4.346-3.649,12.108-3.649,17.562,0
				c5.602,3.742,6.863,10.031,2.576,14.059C249.024,196.571,240.645,196.571,234.984,192.435z"/>
			<path fill="#FFF0D9" d="M258.032,158.273c-5.149-3.134-6.179-8.071-2.486-11.014c3.604-2.878,10.499-2.878,15.587,0
				c5.213,2.943,6.722,7.88,3.186,11.02C270.697,161.493,263.312,161.493,258.032,158.273z"/>
		</g>
		<g>
			<g>
				<path fill="#30A4C4" d="M301.035,165.856l37.138,21.147c18.502-25.558,18.554-53.596,1.932-78.228h-29.855
					C320.283,127.67,317.106,148.083,301.035,165.856z"/>
				<path fill="#FFF0D9" d="M343.517,197.69l-54.216-31.689l4.064-4.287c16.042-16.917,18.723-35.938,10.237-52.938l-1.856-3.722
					h42.368l2.628,3.722c17.573,24.855,20.027,54.713,0.615,83.258L343.517,197.69z M312.558,165.601l20.426,11.343
					c14.159-21.688,13.962-44.374,2.796-64.306h-16.897C326.778,129.477,325.362,148.136,312.558,165.601z"/>
			</g>
			<g>
				<path fill="#30A4C4" d="M301.035,165.856c16.071-17.773,19.248-38.187,9.214-57.08H200.788L301.035,165.856z"/>
				<path fill="#FFF0D9" d="M304.742,175.022l-119.717-69.968h129.769l2.095,3.722c10.861,19.282,9.307,41.322-7.937,61.361
					L304.742,175.022z M217.138,112.637l80.19,44.516c11.436-14.454,13.675-30.087,7.998-44.516H217.138z"/>
			</g>
			<path fill="#FFF0D9" d="M236.56,130.333c-5.674,0-10.594-2.857-10.988-6.289c-0.383-3.325,3.666-5.95,9.039-5.95
				c5.36,0,10.249,2.625,10.928,5.95C246.24,127.476,242.226,130.333,236.56,130.333z"/>
			<path fill="#FFF0D9" d="M273.332,133.771c-5.753,0-11.216-2.941-12.17-6.475c-0.925-3.423,2.759-6.121,8.198-6.121
				c5.442,0,10.829,2.698,12.059,6.121C282.692,130.826,279.09,133.771,273.332,133.771z"/>
			<path fill="#FFF0D9" d="M306.956,147.19c-6.089,0-12.306-3.29-13.843-7.232c-1.488-3.814,1.995-6.817,7.733-6.817
				s11.836,3.002,13.663,6.817C316.401,143.9,313.042,147.19,306.956,147.19z"/>
			<path fill="#FFF0D9" d="M285.373,118.921c-5.387,0-10.649-2.582-11.729-5.689c-1.044-3.008,2.274-5.387,7.386-5.387
				c5.114,0,10.299,2.378,11.612,5.387C293.998,116.339,290.763,118.921,285.373,118.921z"/>
		</g>
		<g>
			<g>
				<path fill="#30A4C4" d="M310.249,108.776h29.855c-13.402-18.578-35.501-33.984-63.144-44.228l-13.725,7.812
					C285.068,81.11,301.474,93.886,310.249,108.776z"/>
				<path fill="#FFF0D9" d="M349.654,112.637h-43.902l-2.083-3.736c-8.151-14.629-23.877-26.622-43.667-34.698l-4.511-1.842
					l19.938-11.064l4.418,1.61c27.762,10.115,51.724,25.719,66.826,45.768L349.654,112.637z M314.417,105.054h16.31
					c-12.12-15.624-30.553-28.237-52.24-37.076l-7.586,4.433C289.411,80.391,304.757,91.533,314.417,105.054z"/>
			</g>
			<g>
				<path fill="#30A4C4" d="M310.249,108.776c-8.775-14.891-25.181-27.666-47.013-36.415l-63.945,36.415H310.249z"/>
				<path fill="#FFF0D9" d="M319.294,112.637H182.939l78.98-43.841l4.485,1.764c22.181,8.732,40.313,21.844,50.412,38.089
					L319.294,112.637z M215.056,105.054h86.258c-7.898-11.807-20.843-21.687-36.798-28.91L215.056,105.054z"/>
			</g>
			<path fill="#FFF0D9" d="M246.524,109.539c-3.215,2.109-9.179,2.109-13.202,0c-3.939-2.062-4.4-5.332-1.163-7.293
				c3.176-1.923,8.821-1.923,12.734,0C248.886,104.208,249.666,107.474,246.524,109.539z"/>
			<path fill="#FFF0D9" d="M269.218,98.948c-2.828,1.897-8.49,1.897-12.528,0c-3.957-1.862-4.752-4.81-1.883-6.582
				c2.813-1.74,8.187-1.74,12.105-0.003C270.912,94.138,271.991,97.085,269.218,98.948z"/>
			<path fill="#FFF0D9" d="M296.588,96.386c-2.526,1.851-8.116,1.851-12.36,0.003c-4.166-1.816-5.355-4.688-2.768-6.417
				c2.535-1.7,7.841-1.7,11.955,0C297.606,91.702,299.077,94.573,296.588,96.386z"/>
			<path fill="#FFF0D9" d="M260.756,85.923c-2.715,1.653-8,1.653-11.702,0c-3.635-1.627-4.272-4.204-1.525-5.758
				c2.7-1.529,7.73-1.529,11.339,0C262.537,81.719,263.425,84.295,260.756,85.923z"/>
		</g>
	</g>
	<g>
		<rect x="22.449" y="90.11" fill="#FFF0D9" width="355.188" height="59.924"/>
		<path fill="#30A4C4" d="M365.073,99.241h-21.821v10.13c0,3.619-2.924,6.547-6.547,6.547c-3.617,0-6.545-2.929-6.545-6.547v-10.13
			h-21.284v19.042c0,3.619-2.927,6.547-6.544,6.547c-3.62,0-6.548-2.929-6.548-6.547V99.241h-21.283v10.13
			c0,3.619-2.925,6.547-6.548,6.547c-3.617,0-6.544-2.929-6.544-6.547v-10.13h-21.284v19.042c0,3.619-2.927,6.547-6.545,6.547
			c-3.62,0-6.547-2.929-6.547-6.547V99.241h-21.821v10.13c0,3.619-2.924,6.547-6.547,6.547c-3.618,0-6.544-2.929-6.544-6.547v-10.13
			h-21.284v19.042c0,3.619-2.927,6.547-6.544,6.547c-3.62,0-6.547-2.929-6.547-6.547V99.241h-21.284v10.13
			c0,3.619-2.927,6.547-6.544,6.547c-3.618,0-6.547-2.929-6.547-6.547v-10.13h-21.281v19.042c0,3.619-2.93,6.547-6.547,6.547
			c-3.617,0-6.544-2.929-6.544-6.547V99.241H67.712v10.13c0,3.619-2.927,6.547-6.547,6.547c-3.617,0-6.544-2.929-6.544-6.547v-10.13
			h-21.8v40.917h4.909h49.106h84.001h194.065L365.073,99.241z"/>
	</g>
</g>
</svg>
