<?xml version="1.0" encoding="utf-8"?>
<!-- Generator: Adobe Illustrator 16.0.0, SVG Export Plug-In . SVG Version: 6.00 Build 0)  -->
<!DOCTYPE svg PUBLIC "-//W3C//DTD SVG 1.1//EN" "http://www.w3.org/Graphics/SVG/1.1/DTD/svg11.dtd">
<svg version="1.1" id="Layer_3" xmlns="http://www.w3.org/2000/svg" xmlns:xlink="http://www.w3.org/1999/xlink" x="0px" y="0px"
	 width="400px" height="300px" viewBox="0 0 400 300" enable-background="new 0 0 400 300" xml:space="preserve">
<g>
	<g>
		<g>
			<g>
				<path fill="#30A4C4" d="M262.909,111.907l13.669-7.779c-23.178-8.22-50.057-12.871-77.897-12.871l-0.087,9.462
					C221.871,100.72,244.129,104.799,262.909,111.907z"/>
				<path fill="#FFF0D9" d="M264.389,115.555l-4.547-1.753c-18.497-7.128-39.843-10.809-61.265-10.809h-5.17l0.561-13.691h4.728
					c27.693,0,55.606,4.414,80.638,13.148l4.68,1.635L264.389,115.555z M203.645,98.571c20.006,0.471,39.878,3.81,57.774,9.884
					l7.643-4.243c-20.444-6.782-42.962-10.451-65.538-10.901L203.645,98.571z"/>
			</g>
			<g>
				<path fill="#30A4C4" d="M262.909,111.907c-18.78-7.108-41.038-11.187-64.315-11.187l-0.416,48.052L262.909,111.907z"/>
				<path fill="#FFF0D9" d="M191.154,158.357l2.438-59.844h5.023c23.389,0,46.791,3.911,67.298,11.542l4.818,1.791L191.154,158.357z
					 M203.749,103.065l0.86,36.926l50.374-27.96C239.184,106.583,221.57,103.548,203.749,103.065z"/>
			</g>
			<path fill="#FFF0D9" d="M229.704,131.809c0.387,2.501-3.194,4.583-8.019,4.583c-4.817,0-8.867-2.083-9.035-4.583
				c-0.161-2.444,3.438-4.379,8.042-4.379C225.291,127.43,229.323,129.365,229.704,131.809z"/>
			<path fill="#FFF0D9" d="M231.582,117.41c0.387,2.137-2.9,3.911-7.354,3.911c-4.448,0-8.215-1.773-8.405-3.911
				c-0.185-2.088,3.114-3.747,7.371-3.747C227.457,113.663,231.206,115.321,231.582,117.41z"/>
			<path fill="#FFF0D9" d="M244.036,107.762c0.509,1.909-2.478,3.489-6.678,3.489c-4.199,0-7.88-1.58-8.215-3.489
				c-0.329-1.869,2.681-3.351,6.707-3.351C239.883,104.412,243.546,105.894,244.036,107.762z"/>
			<path fill="#FFF0D9" d="M212.356,111.084c0.145,1.987-3.212,3.634-7.499,3.634c-4.281,0-7.73-1.646-7.696-3.634
				c0.032-1.944,3.388-3.483,7.494-3.483C208.769,107.601,212.212,109.14,212.356,111.084z"/>
		</g>
		<g>
			<g>
				<path fill="#30A4C4" d="M198.597,100.723l0.084-9.465c-25.849,0.277-53.009,4.616-77.731,13.775l13.625,7.868
					C154.517,104.911,176.986,101.038,198.597,100.723z"/>
				<path fill="#FFF0D9" d="M133.143,116.656l-19.595-11.623l4.538-1.652c24.829-9.049,52.703-13.781,80.486-14.078l4.854-0.055
					l0.318,13.671l-4.993,0.075c-21.481,0.318-42.734,4.324-60.963,11.765L133.143,116.656z M128.423,105.073l7.611,4.283
					c17.703-6.354,37.506-9.974,57.552-10.719l0.213-5.271C171.166,94.083,148.694,98.02,128.423,105.073z"/>
			</g>
			<g>
				<path fill="#30A4C4" d="M198.597,100.723c-21.611,0.315-44.08,4.188-64.022,12.178l63.595,36.729L198.597,100.723z"/>
				<path fill="#FFF0D9" d="M205.055,159.299l-78.235-46.398l4.616-1.814c20.245-7.969,43.563-12.232,67.014-12.573l5.189-0.072
					L205.055,159.299z M142.432,112.958l49.436,27.824l1.534-37.636C175.556,103.915,158.023,107.233,142.432,112.958z"/>
			</g>
			<path fill="#FFF0D9" d="M199.565,125.639c3.242,1.652,3.289,4.396-0.015,6.129c-3.365,1.765-8.812,1.765-12.053,0
				c-3.183-1.733-2.958-4.477,0.398-6.129C191.197,124.018,196.373,124.018,199.565,125.639z"/>
			<path fill="#FFF0D9" d="M183.407,114.495c2.912,1.456,2.727,3.874-0.517,5.398c-3.296,1.545-8.403,1.545-11.3-0.006
				c-2.854-1.522-2.426-3.939,0.855-5.393C175.678,113.06,180.542,113.06,183.407,114.495z"/>
			<path fill="#FFF0D9" d="M180.57,103.3c2.701,1.276,2.484,3.385-0.563,4.714c-3.099,1.349-7.862,1.349-10.549,0
				c-2.646-1.329-2.224-3.438,0.867-4.714C173.361,102.046,177.916,102.046,180.57,103.3z"/>
			<path fill="#FFF0D9" d="M160.56,116.257c2.747,1.488,2.235,3.955-1.239,5.508c-3.541,1.583-8.697,1.583-11.424,0
				c-2.677-1.554-1.921-4.021,1.595-5.508C152.945,114.792,157.862,114.792,160.56,116.257z"/>
		</g>
		<g>
			<g>
				<path fill="#30A4C4" d="M134.575,112.901l-13.625-7.868c-25.282,9.783-48.19,25.008-61.824,45.207h30.022
					C97.762,134.021,114.714,121.32,134.575,112.901z"/>
				<path fill="#FFF0D9" d="M93.872,154.163H49.672l2.77-3.924c14.385-20.343,37.942-36.322,65.527-46.815l4.488-1.707
					l19.769,11.126l-4.287,1.854c-19.5,8.42-34.71,20.716-42.11,35.542L93.872,154.163z M68.393,146.461h16.38
					c9.038-13.737,23.962-25.167,42.226-33.454l-7.544-4.472C97.967,117.687,79.912,130.601,68.393,146.461z"/>
			</g>
			<g>
				<path fill="#30A4C4" d="M134.575,112.901c-19.861,8.419-36.813,21.12-45.426,37.338H199.23L134.575,112.901z"/>
				<path fill="#FFF0D9" d="M215.649,154.163H80.258l2.209-3.924c9.292-16.501,26.909-29.976,48.814-39.092l4.561-1.898
					L215.649,154.163z M97.915,146.461h85.492l-50.048-29.679C117.684,124.304,105.186,134.46,97.915,146.461z"/>
			</g>
			<path fill="#FFF0D9" d="M169.6,132.129c4.72,0,8.31,2.034,8.016,4.604c-0.303,2.637-4.567,4.829-9.521,4.829
				c-4.948,0-8.515-2.192-7.978-4.829C160.646,134.163,164.886,132.129,169.6,132.129z"/>
			<path fill="#FFF0D9" d="M140.644,129.804c4.653,0,7.897,1.981,7.221,4.489c-0.699,2.574-5.24,4.708-10.124,4.708
				c-4.887,0-8.082-2.134-7.154-4.708C131.49,131.785,135.982,129.804,140.644,129.804z"/>
			<path fill="#FFF0D9" d="M121.618,121.803c4.459,0,7.368,1.817,6.476,4.11c-0.916,2.354-5.468,4.307-10.135,4.307
				c-4.67,0-7.519-1.953-6.389-4.307C112.667,123.62,117.158,121.803,121.618,121.803z"/>
			<path fill="#FFF0D9" d="M121.843,140.861c4.931,0,8.16,2.224,7.181,5.04c-1.005,2.892-6.048,5.299-11.236,5.299
				c-5.19,0-8.345-2.408-7.083-5.299C111.938,143.085,116.907,140.861,121.843,140.861z"/>
		</g>
		<g>
			<g>
				<path fill="#30A4C4" d="M89.149,150.239H59.126c-14.474,23.011-15.904,51.462,5.517,78.602l37.151-21.455
					C83.172,188.634,80.781,167.918,89.149,150.239z"/>
				<path fill="#FFF0D9" d="M59.606,239.54l-4.055-5.448c-21.059-28.295-19.923-58.415-3.175-83.749l2.565-3.882h42.561
					l-1.612,3.654c-7.625,17.271-3.804,36.329,13.426,52.926l4.515,4.345L59.606,239.54z M63.635,154.163
					c-10.396,20.266-9.509,43.102,5.907,64.598l20.424-11.496c-13.951-17.25-16.415-35.996-9.312-53.102H63.635z"/>
			</g>
			<g>
				<path fill="#30A4C4" d="M89.149,150.239c-8.368,17.679-5.977,38.395,12.646,57.146l98.94-57.144L89.149,150.239z"/>
				<path fill="#FFF0D9" d="M98.418,216.524l-4.405-4.645c-18.679-19.711-21.539-41.87-11.614-61.51l1.979-3.908h132.185
					L98.418,216.524z M94.328,154.163c-4.881,14.645-1.644,30.317,10.846,44.546l79.146-44.546H94.328z"/>
			</g>
			<path fill="#FFF0D9" d="M153.581,149.471c4.064-2.068,9.901-2.071,13.174,0c3.339,2.11,2.839,5.623-1.251,7.852
				c-4.183,2.271-10.37,2.271-13.677,0C148.587,155.094,149.436,151.581,153.581,149.471z"/>
			<path fill="#FFF0D9" d="M123.091,161.274c4.613-2.311,10.782-2.311,13.928,0c3.207,2.363,2.149,6.291-2.524,8.793
				c-4.777,2.547-11.331,2.547-14.479,0C116.933,167.565,118.38,163.638,123.091,161.274z"/>
			<path fill="#FFF0D9" d="M89.64,164.55c5.035-2.386,11.3-2.386,14.13-0.006c2.897,2.433,1.216,6.482-3.908,9.059
				c-5.242,2.629-11.903,2.629-14.702-0.006C82.416,171.026,84.49,166.977,89.64,164.55z"/>
			<path fill="#FFF0D9" d="M121.56,180.062c5.017-2.716,11.707-2.722,15.112,0c3.483,2.784,2.331,7.429-2.762,10.387
				c-5.213,3.032-12.356,3.032-15.771,0C114.81,187.49,116.424,182.846,121.56,180.062z"/>
		</g>
		<g>
			<g>
				<path fill="#30A4C4" d="M101.794,207.386l-37.151,21.455c25.6,29.838,75.301,51.472,138.297,51.472l-0.353-40.184
					C158.928,240.129,122.86,226.778,101.794,207.386z"/>
				<path fill="#FFF0D9" d="M214.211,290.774h-11.179c-65.462,0-119.695-22.426-147.375-56.544l-4.263-5.251l53.317-30.005
					l4.451,3.928c20.765,18.319,54.753,29.549,93.362,29.549h9.312L214.211,290.774z M78.101,228.569
					c24.887,23.882,65.859,39.577,114.231,41.675l0.514-22.241c-38.638-1.779-72.156-13.541-93.969-31.756L78.101,228.569z"/>
			</g>
			<g>
				<path fill="#30A4C4" d="M101.794,207.386c21.065,19.393,57.133,32.743,100.793,32.743l-0.792-90.499L101.794,207.386z"/>
				<path fill="#FFF0D9" d="M212.478,248.229h-9.82c-45.7,0-85.329-13.917-108.497-36.204l-4.667-4.488l118.606-66.753
					L212.478,248.229z M114.321,207.091c19.171,14.396,47.139,23.575,78.895,25.136l1.695-72.928L114.321,207.091z"/>
			</g>
			<path fill="#FFF0D9" d="M164.289,170.09c0.549-3.512,5.439-6.285,10.938-6.285c5.502,0,9.774,2.773,9.541,6.285
				c-0.24,3.628-5.156,6.655-10.979,6.655C167.968,176.745,163.722,173.718,164.289,170.09z"/>
			<path fill="#FFF0D9" d="M154.445,195.018c0.774-4.315,6.314-7.706,12.397-7.706s10.705,3.391,10.317,7.706
				c-0.404,4.471-5.991,8.209-12.463,8.209C158.217,203.227,153.639,199.488,154.445,195.018z"/>
			<path fill="#FFF0D9" d="M126.672,218.159c1.36-5.136,7.79-9.156,14.411-9.156c6.62,0,11.276,4.021,10.378,9.156
				c-0.936,5.326-7.464,9.81-14.552,9.81C129.821,227.969,125.26,223.485,126.672,218.159z"/>
			<path fill="#FFF0D9" d="M180.443,209.425c0.353-4.812,5.826-8.596,12.244-8.596c6.415,0,11.68,3.783,11.76,8.596
				c0.087,4.997-5.402,9.186-12.262,9.186C185.331,218.61,180.077,214.422,180.443,209.425z"/>
		</g>
		<g>
			<g>
				<path fill="#30A4C4" d="M202.588,240.129l0.353,40.184c58.109-1.433,108.714-21.479,134.583-54.256L300.546,205
					C279.27,226.438,242.881,239.031,202.588,240.129z"/>
				<path fill="#FFF0D9" d="M191.844,291.063l1.357-58.363l9.01-0.249c38.485-1.022,71.472-13.056,90.842-31.721l4.286-4.136
					l53.061,29.462l-3.83,5.152c-25.562,34.344-78.046,57.902-143.243,59.565L191.844,291.063z M212.454,247.743l0.907,22.229
					c48.052-3.293,87.779-19.844,111.077-44.037l-20.681-12.086C283.313,232.423,250.818,244.958,212.454,247.743z"/>
			</g>
			<g>
				<path fill="#30A4C4" d="M202.588,240.129c40.293-1.098,76.682-13.691,97.958-35.129l-98.75-56.228L202.588,240.129z"/>
				<path fill="#FFF0D9" d="M192.835,248.505l2.527-108.511L312.475,205l-4.182,4.407c-21.45,22.646-59.797,37.526-105.307,38.815
					L192.835,248.505z M208.821,158.363l2.992,73.592c31.495-2.433,58.601-12.322,76.578-27.088L208.821,158.363z"/>
			</g>
			<path fill="#FFF0D9" d="M200.532,179.674c-4.127-2.709-4.067-6.973-0.022-9.525c3.949-2.502,10.362-2.502,14.486,0
				c4.212,2.553,4.563,6.816,0.63,9.525C211.588,182.447,204.754,182.447,200.532,179.674z"/>
			<path fill="#FFF0D9" d="M224.887,201.326c-4.801-3.212-5.193-8.272-1.081-11.294c4.01-2.946,10.977-2.946,15.742,0
				c4.882,3.026,5.777,8.082,1.803,11.294C237.271,204.636,229.809,204.636,224.887,201.326z"/>
			<path fill="#FFF0D9" d="M234.782,231.464c-5.488-4.01-6.13-10.271-1.688-13.998c4.327-3.633,12.057-3.633,17.487,0
				c5.58,3.727,6.834,9.988,2.564,13.998C248.762,235.582,240.414,235.582,234.782,231.464z"/>
			<path fill="#FFF0D9" d="M257.728,197.449c-5.124-3.119-6.152-8.035-2.473-10.964c3.588-2.866,10.451-2.866,15.517,0
				c5.193,2.929,6.695,7.845,3.172,10.97C270.339,200.655,262.984,200.655,257.728,197.449z"/>
		</g>
		<g>
			<g>
				<path fill="#30A4C4" d="M300.546,205l36.978,21.057c18.423-25.447,18.475-53.367,1.924-77.891H309.72
					C319.714,166.977,316.548,187.306,300.546,205z"/>
				<path fill="#FFF0D9" d="M342.844,236.697l-53.979-31.553l4.044-4.27c15.973-16.846,18.642-35.782,10.196-52.709l-1.849-3.706
					h42.183l2.616,3.706c17.498,24.75,19.942,54.477,0.612,82.9L342.844,236.697z M312.019,204.746l20.341,11.293
					c14.096-21.594,13.898-44.181,2.784-64.03h-16.828C326.178,168.779,324.769,187.357,312.019,204.746z"/>
			</g>
			<g>
				<path fill="#30A4C4" d="M300.546,205c16.002-17.694,19.168-38.023,9.174-56.834H200.731L300.546,205z"/>
				<path fill="#FFF0D9" d="M304.237,214.127l-119.201-69.667h129.213l2.085,3.706c10.814,19.198,9.267,41.144-7.902,61.097
					L304.237,214.127z M217.013,152.009l79.842,44.326c11.386-14.391,13.616-29.959,7.966-44.326H217.013z"/>
			</g>
			<path fill="#FFF0D9" d="M236.348,169.628c-5.649,0-10.549-2.842-10.941-6.262c-0.381-3.311,3.651-5.922,9-5.922
				c5.338,0,10.208,2.611,10.884,5.922C245.989,166.786,241.991,169.628,236.348,169.628z"/>
			<path fill="#FFF0D9" d="M272.961,173.054c-5.725,0-11.166-2.929-12.113-6.447c-0.925-3.408,2.743-6.095,8.162-6.095
				s10.78,2.687,12.005,6.095C282.285,170.119,278.697,173.054,272.961,173.054z"/>
			<path fill="#FFF0D9" d="M306.444,186.416c-6.066,0-12.253-3.275-13.784-7.204c-1.484-3.796,1.987-6.788,7.701-6.788
				c5.713,0,11.784,2.992,13.604,6.788C315.849,183.141,312.504,186.416,306.444,186.416z"/>
			<path fill="#FFF0D9" d="M284.954,158.265c-5.367,0-10.606-2.57-11.681-5.661c-1.04-2.997,2.265-5.365,7.354-5.365
				c5.096,0,10.254,2.369,11.565,5.365C293.538,155.694,290.32,158.265,284.954,158.265z"/>
		</g>
		<g>
			<g>
				<path fill="#30A4C4" d="M309.72,148.166h29.728c-13.345-18.498-35.349-33.838-62.869-44.037l-13.669,7.779
					C284.647,120.619,300.985,133.339,309.72,148.166z"/>
				<path fill="#FFF0D9" d="M348.956,152.009h-43.714l-2.073-3.719c-8.117-14.566-23.772-26.507-43.478-34.548l-4.494-1.834
					l19.855-11.017l4.396,1.603c27.642,10.072,51.5,25.609,66.537,45.571L348.956,152.009z M313.873,144.459h16.239
					c-12.068-15.557-30.422-28.116-52.016-36.917l-7.556,4.414C288.975,119.902,304.255,130.997,313.873,144.459z"/>
			</g>
			<g>
				<path fill="#30A4C4" d="M309.72,148.166c-8.734-14.826-25.072-27.547-46.811-36.258l-63.668,36.258H309.72z"/>
				<path fill="#FFF0D9" d="M318.726,152.009H182.959l78.639-43.651l4.465,1.756c22.085,8.694,40.144,21.75,50.195,37.925
					L318.726,152.009z M214.938,144.459h85.885c-7.862-11.756-20.751-21.594-36.637-28.786L214.938,144.459z"/>
			</g>
			<path fill="#FFF0D9" d="M246.272,148.925c-3.2,2.101-9.14,2.101-13.148,0c-3.923-2.054-4.379-5.309-1.155-7.262
				c3.16-1.915,8.781-1.915,12.68,0C248.623,143.616,249.397,146.869,246.272,148.925z"/>
			<path fill="#FFF0D9" d="M268.865,138.379c-2.813,1.889-8.451,1.889-12.472,0c-3.94-1.854-4.731-4.789-1.878-6.554
				c2.802-1.733,8.151-1.733,12.057-0.003C270.553,133.59,271.627,136.525,268.865,138.379z"/>
			<path fill="#FFF0D9" d="M296.121,135.829c-2.519,1.843-8.082,1.843-12.311,0.003c-4.148-1.808-5.332-4.668-2.756-6.389
				c2.524-1.693,7.811-1.693,11.906,0C297.132,131.164,298.599,134.024,296.121,135.829z"/>
			<path fill="#FFF0D9" d="M260.442,125.411c-2.703,1.646-7.966,1.646-11.651,0c-3.622-1.621-4.258-4.186-1.52-5.734
				c2.687-1.522,7.695-1.522,11.288,0C262.217,121.225,263.101,123.79,260.442,125.411z"/>
		</g>
	</g>
	<g>
		<g>
			<path fill="#FFF0D9" d="M213.841,102.255h-6.62c-2.883,0-5.217-2.337-5.217-5.219V90.73c-7.775-1.759-14.193-5.84-18.741-11.961
				c-1.634-2.198-1.29-5.283,0.784-7.068l7.693-6.619c1.138-0.978,2.646-1.414,4.123-1.213c1.486,0.207,2.809,1.041,3.635,2.293
				c0.822,1.245,1.627,2.244,2.505,3.057v-7.273c-12.072-3.833-19.146-11.847-19.146-21.981c0-11.875,7.649-20.752,19.146-22.946
				v-1.745c0-2.881,2.334-5.218,5.217-5.218h6.62c2.88,0,5.217,2.337,5.217,5.218v1.791c5.924,1.208,11.256,4.346,16.781,9.789
				c0.994,0.98,1.555,2.318,1.555,3.716c0,1.396-0.558,2.735-1.552,3.714l-6.979,6.888c-2.021,1.999-5.271,2.007-7.308,0.021
				c-0.915-0.893-1.735-1.661-2.498-2.313v5.878c9.875,3.495,19.769,9.717,19.769,24.188c0,11.867-7.291,19.85-19.769,22.024v6.064
				C219.058,99.918,216.721,102.255,213.841,102.255z M209.907,81.83c0.219,0.131,0.427,0.278,0.624,0.439
				c0.193-0.161,0.401-0.308,0.617-0.439c-0.216-0.13-0.424-0.277-0.617-0.438c-0.018,0.013-0.035,0.026-0.05,0.039
				C210.3,81.577,210.109,81.711,209.907,81.83z M213.841,54.697c0.439,0,0.884,0.055,1.317,0.167
				c5.222,1.365,8.957,3.547,11.184,6.521c-2.129-3.008-6.273-5.533-13.991-7.831c-1.196-0.357-2.189-1.114-2.848-2.099
				c-1.139,0.555-2.456,0.68-3.697,0.331c-1.797-0.507-4.218-1.187-6.472-2.389c3.149,1.934,6.801,2.964,9.013,3.453
				c1.407,0.311,2.577,1.173,3.299,2.328C212.333,54.862,213.084,54.697,213.841,54.697z M209.907,26.191
				c0.219,0.13,0.427,0.276,0.624,0.438c0.196-0.162,0.404-0.308,0.617-0.438c-0.213-0.131-0.421-0.279-0.617-0.439
				C210.334,25.913,210.126,26.06,209.907,26.191z"/>
		</g>
		<g>
			<path fill="#30A4C4" d="M207.221,57.947c-10.109-2.237-19.145-7.962-19.145-17.98c0-11.988,9.035-18.071,19.145-18.249v-6.441
				h6.62v6.441c6.886,0.178,12.432,3.04,18.336,8.856l-6.979,6.886c-3.576-3.488-6.62-6.08-11.357-6.795v17.89
				c12.611,3.758,19.769,9.125,19.769,20.394c0,11.808-8.945,16.819-19.769,17.357v10.732h-6.62V86.304
				c-7.873-0.808-14.851-4.027-19.77-10.647l7.693-6.619c3.309,5.008,6.889,7.156,12.077,8.318V57.947z M207.221,30.664
				c-5.459,0.355-9.126,2.681-9.126,8.497c0,4.116,2.774,5.816,9.126,7.604V30.664z M213.841,77.357c4.65,0,9.746-1.789,9.746-8.14
				c0-5.189-3.935-7.783-9.746-9.303V77.357z"/>
		</g>
	</g>
	<g>
		<g>
			<path fill="#FFF0D9" d="M277.352,170.783h-10.017c-4.362,0-7.897-3.535-7.897-7.896v-9.541
				c-11.762-2.666-21.476-8.84-28.358-18.103c-2.47-3.325-1.95-7.994,1.19-10.696l11.64-10.017c1.722-1.479,4.004-2.137,6.239-1.835
				c2.247,0.313,4.252,1.579,5.503,3.47c1.244,1.886,2.464,3.398,3.786,4.629v-11.008c-18.264-5.8-28.968-17.929-28.968-33.263
				c0-17.972,11.574-31.403,28.968-34.724v-2.64c0-4.362,3.535-7.897,7.897-7.897h10.017c4.361,0,7.897,3.535,7.897,7.897v2.71
				c8.966,1.826,17.036,6.576,25.395,14.813c1.508,1.482,2.354,3.507,2.357,5.621c0,2.113-0.847,4.139-2.352,5.624l-10.56,10.421
				c-3.062,3.026-7.979,3.039-11.058,0.035c-1.389-1.353-2.628-2.516-3.783-3.503v8.896c14.944,5.289,29.918,14.703,29.918,36.604
				c0,17.959-11.034,30.04-29.918,33.333v9.174C285.249,167.248,281.713,170.783,277.352,170.783z M271.404,139.875
				c0.332,0.199,0.645,0.421,0.938,0.664c0.298-0.243,0.612-0.465,0.942-0.663c-0.33-0.198-0.645-0.42-0.942-0.663
				c-0.022,0.02-0.046,0.039-0.069,0.059C271.997,139.493,271.708,139.695,271.404,139.875z M277.352,98.814
				c0.67,0,1.341,0.085,1.999,0.255c7.896,2.065,13.553,5.367,16.926,9.867c-3.223-4.552-9.497-8.371-21.178-11.85
				c-1.808-0.54-3.31-1.685-4.31-3.176c-1.722,0.839-3.715,1.03-5.592,0.5c-2.724-0.766-6.381-1.795-9.798-3.615
				c4.771,2.926,10.295,4.484,13.643,5.225c2.129,0.473,3.896,1.776,4.991,3.524C275.073,99.062,276.208,98.814,277.352,98.814z
				 M271.404,55.677c0.326,0.196,0.642,0.417,0.938,0.663c0.301-0.246,0.612-0.466,0.942-0.663c-0.33-0.2-0.645-0.42-0.942-0.665
				C272.049,55.256,271.733,55.477,271.404,55.677z"/>
		</g>
		<g>
			<path fill="#30A4C4" d="M267.335,103.731c-15.298-3.384-28.969-12.048-28.969-27.209c0-18.141,13.671-27.346,28.969-27.616
				v-9.747h10.017v9.747c10.422,0.27,18.818,4.601,27.752,13.402l-10.56,10.421c-5.413-5.28-10.018-9.204-17.192-10.286v27.073
				c19.087,5.687,29.919,13.808,29.919,30.863c0,17.869-13.535,25.451-29.919,26.265v16.242h-10.017v-16.242
				c-11.912-1.221-22.473-6.093-29.916-16.112l11.644-10.016c5.006,7.579,10.422,10.829,18.272,12.589V103.731z M267.335,62.444
				c-8.256,0.54-13.807,4.058-13.807,12.859c0,6.228,4.196,8.8,13.807,11.506V62.444z M277.352,133.107
				c7.039,0,14.754-2.708,14.754-12.319c0-7.851-5.953-11.776-14.754-14.077V133.107z"/>
		</g>
	</g>
	<g>
		<g>
			<path fill="#FFF0D9" d="M139.735,205.223h-13.131c-5.718,0-10.352-4.637-10.352-10.353v-12.51
				c-15.421-3.492-28.154-11.589-37.176-23.731c-3.239-4.355-2.559-10.478,1.557-14.021l15.262-13.131
				c2.256-1.939,5.246-2.802,8.179-2.406c2.946,0.41,5.572,2.068,7.211,4.549c1.632,2.471,3.229,4.454,4.967,6.067v-14.431
				c-23.945-7.604-37.977-23.501-37.977-43.605c0-23.56,15.174-41.166,37.977-45.519v-3.46c0-5.717,4.634-10.352,10.352-10.352
				h13.131c5.718,0,10.352,4.635,10.352,10.352v3.553c11.751,2.393,22.329,8.62,33.291,19.418c1.973,1.944,3.085,4.599,3.086,7.37
				c0.001,2.77-1.108,5.426-3.081,7.371l-13.841,13.663c-4.014,3.966-10.46,3.983-14.499,0.044c-1.82-1.773-3.441-3.297-4.957-4.592
				v11.662c19.589,6.934,39.219,19.276,39.219,47.984c0,23.544-14.464,39.378-39.219,43.693v12.03
				C150.087,200.586,145.453,205.223,139.735,205.223z M131.938,164.7c0.433,0.263,0.845,0.555,1.232,0.872
				c0.387-0.317,0.799-0.609,1.23-0.869c-0.432-0.26-0.843-0.552-1.23-0.869c-0.032,0.025-0.063,0.052-0.095,0.078
				C132.712,164.203,132.332,164.467,131.938,164.7z M139.735,110.875c0.875,0,1.755,0.111,2.618,0.336
				c10.354,2.707,17.766,7.035,22.189,12.933c-4.227-5.968-12.452-10.973-27.764-15.534c-2.37-0.708-4.337-2.208-5.645-4.162
				c-2.262,1.099-4.873,1.349-7.334,0.656c-3.57-1.005-8.363-2.354-12.84-4.74c6.25,3.836,13.49,5.879,17.881,6.85
				c2.79,0.618,5.108,2.328,6.542,4.62C136.747,111.201,138.235,110.875,139.735,110.875z M131.938,54.326
				c0.429,0.257,0.84,0.547,1.232,0.868c0.392-0.321,0.803-0.611,1.232-0.868c-0.432-0.261-0.843-0.552-1.232-0.871
				C132.781,53.774,132.37,54.065,131.938,54.326z"/>
		</g>
		<g>
			<path fill="#30A4C4" d="M126.604,117.321c-20.054-4.437-37.977-15.794-37.977-35.669c0-23.781,17.923-35.849,37.977-36.201
				V32.673h13.131v12.779c13.662,0.352,24.667,6.031,36.377,17.567l-13.841,13.662c-7.097-6.92-13.131-12.065-22.536-13.483v35.49
				c25.02,7.455,39.219,18.102,39.219,40.458c0,23.425-17.747,33.364-39.219,34.43v21.294h-13.131v-21.294
				c-15.618-1.6-29.459-7.986-39.219-21.12l15.263-13.13c6.562,9.936,13.662,14.197,23.957,16.504V117.321z M126.604,63.198
				c-10.826,0.708-18.102,5.32-18.102,16.856c0,8.163,5.502,11.537,18.102,15.083V63.198z M139.735,155.83
				c9.226,0,19.341-3.55,19.341-16.149c0-10.292-7.805-15.438-19.341-18.454V155.83z"/>
		</g>
	</g>
</g>
</svg>
