<?xml version="1.0" encoding="utf-8"?>
<!-- Generator: Adobe Illustrator 16.0.0, SVG Export Plug-In . SVG Version: 6.00 Build 0)  -->
<!DOCTYPE svg PUBLIC "-//W3C//DTD SVG 1.1//EN" "http://www.w3.org/Graphics/SVG/1.1/DTD/svg11.dtd">
<svg version="1.1" id="Layer_5" xmlns="http://www.w3.org/2000/svg" xmlns:xlink="http://www.w3.org/1999/xlink" x="0px" y="0px"
	 width="400px" height="300px" viewBox="0 0 400 300" enable-background="new 0 0 400 300" xml:space="preserve">
<g>
	<g>
		<g>
			<g>
				<path fill="#30A4C4" d="M277.441,70.396l21.289-21.289c-26.17-24.825-61.502-40.085-100.42-40.085V39.13
					C228.915,39.13,256.728,51.015,277.441,70.396z"/>
				<path fill="#FFF0D9" d="M277.596,79.716l-4.732-4.427c-20.302-18.998-46.778-29.459-74.553-29.459h-6.7V2.322h6.7
					c39.229,0,76.531,14.889,105.031,41.924l4.991,4.734L277.596,79.716z M205.011,32.61c26.57,1.441,51.78,11.426,72.156,28.585
					l11.843-11.844c-23.579-20.281-52.972-31.994-83.999-33.469V32.61z"/>
			</g>
			<g>
				<path fill="#30A4C4" d="M277.441,70.396c-20.714-19.381-48.526-31.266-79.131-31.266v110.396L277.441,70.396z"/>
				<path fill="#FFF0D9" d="M191.61,165.7V32.43h6.7c31.188,0,60.915,11.746,83.708,33.073l5.06,4.733L191.61,165.7z
					 M205.011,46.035v87.314l62.642-62.639C249.85,56.037,228.022,47.436,205.011,46.035z"/>
			</g>
			<circle fill="#FFF0D9" cx="223.447" cy="116.917" r="9.378"/>
			<circle fill="#FFF0D9" cx="228.362" cy="84.308" r="9.378"/>
			<circle fill="#FFF0D9" cx="246.228" cy="59.293" r="9.377"/>
			<circle fill="#FFF0D9" cx="206.026" cy="68.228" r="9.377"/>
		</g>
		<g>
			<g>
				<path fill="#30A4C4" d="M198.311,39.131V9.022c-36.061,0.953-71.834,15.145-99.352,42.664l21.289,21.289
					C141.888,51.334,169.958,40.072,198.311,39.131z"/>
				<path fill="#FFF0D9" d="M120.248,82.451L89.484,51.687l4.737-4.737C121.959,19.21,158.863,3.362,198.133,2.324l6.878-0.182
					v43.471l-6.478,0.214c-27.79,0.922-53.911,12.247-73.547,31.885L120.248,82.451z M108.546,51.799l11.83,11.829
					c19.807-17.77,44.692-28.535,71.234-30.808V16.069C160.595,18.402,131.53,30.903,108.546,51.799z"/>
			</g>
			<g>
				<path fill="#30A4C4" d="M198.311,39.131c-28.353,0.941-56.423,12.203-78.062,33.844l78.06,78.062L198.311,39.131z"/>
				<path fill="#FFF0D9" d="M205.008,167.213l-94.234-94.237l4.737-4.737c22.05-22.054,51.376-34.768,82.577-35.803l6.923-0.23
					L205.008,167.213z M129.866,73.12l61.742,61.741l0.002-88.585C168.646,48.485,147.127,57.839,129.866,73.12z"/>
			</g>
			<path fill="#FFF0D9" d="M199.656,103.574c3.662,3.662,3.665,9.6,0,13.263c-3.661,3.662-9.6,3.662-13.264-0.001
				c-3.659-3.662-3.659-9.601,0-13.262C190.056,99.911,195.991,99.913,199.656,103.574z"/>
			<circle fill="#FFF0D9" cx="173.442" cy="83.672" r="9.377"/>
			<path fill="#FFF0D9" d="M175.017,46.719c3.664,3.663,3.664,9.602,0.002,13.263c-3.662,3.663-9.603,3.663-13.264,0
				c-3.662-3.662-3.662-9.6,0.002-13.263C165.417,43.057,171.358,43.057,175.017,46.719z"/>
			<circle fill="#FFF0D9" cx="146.278" cy="88.096" r="9.377"/>
		</g>
		<g>
			<g>
				<path fill="#30A4C4" d="M120.248,72.976L98.959,51.687c-24.825,26.17-40.086,61.5-40.086,100.42h30.109
					C88.981,121.502,100.867,93.688,120.248,72.976z"/>
				<path fill="#FFF0D9" d="M95.682,158.807h-43.51v-6.7c0-39.229,14.89-76.53,41.926-105.032l4.734-4.991l30.735,30.737
					l-4.429,4.732c-18.996,20.302-29.457,46.779-29.457,74.554V158.807z M65.732,145.406h16.729
					c1.442-26.573,11.427-51.78,28.586-72.156L99.205,61.407C78.921,84.986,67.208,114.378,65.732,145.406z"/>
			</g>
			<g>
				<path fill="#30A4C4" d="M120.248,72.976c-19.381,20.713-31.267,48.527-31.267,79.131h110.397L120.248,72.976z"/>
				<path fill="#FFF0D9" d="M215.553,158.807H82.281v-6.7c0-31.186,11.747-60.915,33.075-83.708l4.732-5.058L215.553,158.807z
					 M95.886,145.406h87.317l-62.642-62.641C105.887,100.565,97.286,122.395,95.886,145.406z"/>
			</g>
			<path fill="#FFF0D9" d="M166.767,117.592c5.182,0,9.38,4.199,9.38,9.378c0,5.18-4.198,9.377-9.38,9.377
				c-5.177,0-9.378-4.198-9.378-9.377C157.389,121.791,161.59,117.592,166.767,117.592z"/>
			<path fill="#FFF0D9" d="M134.161,112.677c5.177,0,9.378,4.198,9.378,9.38c0,5.177-4.201,9.375-9.378,9.375
				c-5.182,0-9.38-4.198-9.38-9.375C124.781,116.875,128.979,112.677,134.161,112.677z"/>
			<circle fill="#FFF0D9" cx="109.146" cy="104.189" r="9.378"/>
			<path fill="#FFF0D9" d="M118.081,135.012c5.177,0,9.378,4.199,9.378,9.378c0,5.18-4.201,9.378-9.378,9.378
				c-5.182,0-9.38-4.199-9.38-9.378C108.7,139.211,112.898,135.012,118.081,135.012z"/>
		</g>
		<g>
			<g>
				<path fill="#30A4C4" d="M88.981,152.106H58.873c0.953,36.061,15.146,71.834,42.667,99.352l21.289-21.289
					C101.187,208.529,89.924,180.459,88.981,152.106z"/>
				<path fill="#FFF0D9" d="M101.54,260.933l-4.737-4.737c-27.741-27.738-43.591-64.642-44.627-103.911l-0.183-6.878h43.471
					l0.217,6.477c0.921,27.791,12.247,53.911,31.887,73.549l4.74,4.737L101.54,260.933z M65.918,158.807
					c2.335,31.015,14.838,60.079,35.734,83.062l11.828-11.827c-17.769-19.806-28.534-44.69-30.811-71.234H65.918z"/>
			</g>
			<g>
				<path fill="#30A4C4" d="M88.981,152.106c0.942,28.353,12.205,56.423,33.847,78.062l78.06-78.06L88.981,152.106z"/>
				<path fill="#FFF0D9" d="M122.829,239.644l-4.737-4.737c-22.054-22.048-34.768-51.377-35.807-82.577l-0.228-6.923l135.007,0.002
					L122.829,239.644z M96.127,158.807c2.209,22.964,11.565,44.482,26.846,61.741l61.741-61.738L96.127,158.807z"/>
			</g>
			<path fill="#FFF0D9" d="M153.424,150.761c3.664-3.662,9.6-3.664,13.265,0c3.661,3.662,3.661,9.601,0,13.265
				c-3.665,3.659-9.601,3.659-13.265,0C149.763,160.361,149.765,154.425,153.424,150.761z"/>
			<circle fill="#FFF0D9" cx="133.524" cy="176.974" r="9.377"/>
			<path fill="#FFF0D9" d="M96.572,175.4c3.661-3.664,9.6-3.664,13.262-0.003s3.662,9.603,0,13.265
				c-3.662,3.661-9.601,3.661-13.262-0.003C92.908,185,92.908,179.059,96.572,175.4z"/>
			<circle fill="#FFF0D9" cx="137.947" cy="204.14" r="9.377"/>
		</g>
		<g>
			<g>
				<path fill="#30A4C4" d="M122.829,230.169l-21.289,21.289c26.17,24.825,61.5,40.086,100.419,40.086v-30.109
					C171.355,261.435,143.542,249.55,122.829,230.169z"/>
				<path fill="#FFF0D9" d="M208.66,298.245h-6.701c-39.23,0-76.532-14.891-105.031-41.924l-4.991-4.738l30.737-30.733l4.732,4.425
					c20.302,18.999,46.779,29.46,74.553,29.46h6.701V298.245z M111.26,251.212c23.579,20.283,52.971,31.994,83.999,33.47v-16.729
					c-26.57-1.44-51.78-11.423-72.156-28.581L111.26,251.212z"/>
			</g>
			<g>
				<path fill="#30A4C4" d="M122.829,230.169c20.713,19.381,48.527,31.266,79.13,31.266V151.038L122.829,230.169z"/>
				<path fill="#FFF0D9" d="M208.66,268.136h-6.701c-31.188,0-60.914-11.746-83.708-33.072l-5.059-4.734l95.469-95.466V268.136z
					 M132.617,229.854c17.802,14.673,39.63,23.272,62.642,24.677v-87.316L132.617,229.854z"/>
			</g>
			<circle fill="#FFF0D9" cx="176.823" cy="183.649" r="9.377"/>
			<path fill="#FFF0D9" d="M162.53,216.255c0-5.177,4.198-9.377,9.38-9.377c5.177,0,9.375,4.2,9.375,9.377
				c0,5.183-4.199,9.381-9.375,9.381C166.728,225.636,162.53,221.438,162.53,216.255z"/>
			<circle fill="#FFF0D9" cx="154.042" cy="241.271" r="9.378"/>
			<path fill="#FFF0D9" d="M184.865,232.336c0-5.177,4.199-9.378,9.378-9.378c5.18,0,9.378,4.201,9.378,9.378
				c0,5.183-4.198,9.38-9.378,9.38C189.064,241.716,184.865,237.519,184.865,232.336z"/>
		</g>
		<g>
			<g>
				<path fill="#30A4C4" d="M201.959,261.435v30.109c36.061-0.953,71.834-15.146,99.352-42.667l-21.289-21.289
					C258.383,249.23,230.312,260.493,201.959,261.435z"/>
				<path fill="#FFF0D9" d="M195.259,298.422v-43.47l6.478-0.215c27.79-0.924,53.91-12.246,73.549-31.886l4.736-4.738l30.764,30.764
					l-4.736,4.738c-27.739,27.739-64.642,43.587-103.912,44.623L195.259,298.422z M208.66,267.745v16.75
					c31.014-2.331,60.078-14.832,83.064-35.728l-11.831-11.83C260.086,254.709,235.201,265.471,208.66,267.745z"/>
			</g>
			<g>
				<path fill="#30A4C4" d="M201.959,261.435c28.354-0.941,56.424-12.204,78.062-33.847l-78.06-78.06L201.959,261.435z"/>
				<path fill="#FFF0D9" d="M195.259,268.36l0.003-135.008l94.234,94.236l-4.736,4.738c-22.052,22.053-51.378,34.768-82.578,35.804
					L195.259,268.36z M208.662,165.706l-0.002,88.584c22.963-2.209,44.481-11.563,61.743-26.844L208.662,165.706z"/>
			</g>
			<path fill="#FFF0D9" d="M200.614,196.992c-3.662-3.664-3.665-9.6,0-13.265c3.661-3.661,9.6-3.661,13.264,0
				c3.659,3.665,3.659,9.601,0,13.265C210.214,200.654,204.278,200.651,200.614,196.992z"/>
			<circle fill="#FFF0D9" cx="226.827" cy="216.894" r="9.377"/>
			<path fill="#FFF0D9" d="M225.253,253.845c-3.664-3.662-3.664-9.6-0.002-13.262c3.66-3.662,9.603-3.662,13.264,0
				c3.662,3.662,3.662,9.6-0.002,13.262C234.854,257.509,228.911,257.509,225.253,253.845z"/>
			<path fill="#FFF0D9" d="M247.361,219.101c-3.662-3.662-3.664-9.601-0.003-13.262c3.665-3.664,9.601-3.664,13.265,0
				s3.664,9.6,0,13.264C256.961,222.765,251.023,222.762,247.361,219.101z"/>
		</g>
		<g>
			<g>
				<path fill="#30A4C4" d="M280.021,227.588l21.289,21.289c24.825-26.167,40.087-61.501,40.087-100.418h-30.109
					C311.288,179.064,299.402,206.875,280.021,227.588z"/>
				<path fill="#FFF0D9" d="M301.437,258.482l-30.734-30.736l4.428-4.733c18.996-20.305,29.458-46.781,29.458-74.554v-6.7h43.51v6.7
					c0,39.229-14.89,76.527-41.927,105.029L301.437,258.482z M289.222,227.316l11.843,11.84
					c20.284-23.576,31.997-52.968,33.473-83.999h-16.729C316.366,181.73,306.38,206.938,289.222,227.316z"/>
			</g>
			<g>
				<path fill="#30A4C4" d="M280.021,227.588c19.381-20.713,31.267-48.523,31.267-79.129H200.891L280.021,227.588z"/>
				<path fill="#FFF0D9" d="M280.182,237.226l-95.465-95.467h133.272v6.7c0,31.187-11.746,60.913-33.075,83.709L280.182,237.226z
					 M217.065,155.157l62.643,62.643c14.675-17.8,23.274-39.631,24.676-62.643H217.065z"/>
			</g>
			<path fill="#FFF0D9" d="M233.503,182.975c-5.183,0-9.381-4.198-9.381-9.381c0-5.177,4.198-9.375,9.381-9.375
				c5.177,0,9.377,4.198,9.377,9.375C242.88,178.776,238.68,182.975,233.503,182.975z"/>
			<path fill="#FFF0D9" d="M266.108,187.89c-5.178,0-9.378-4.198-9.378-9.38c0-5.178,4.2-9.376,9.378-9.376
				c5.183,0,9.38,4.198,9.38,9.376C275.488,183.691,271.291,187.89,266.108,187.89z"/>
			<path fill="#FFF0D9" d="M291.125,205.755c-5.18,0-9.381-4.197-9.381-9.38c0-5.177,4.201-9.375,9.381-9.375
				c5.179,0,9.38,4.198,9.38,9.375C300.505,201.558,296.304,205.755,291.125,205.755z"/>
			<path fill="#FFF0D9" d="M282.188,165.554c-5.177,0-9.377-4.198-9.377-9.381c0-5.176,4.2-9.376,9.377-9.376
				c5.183,0,9.381,4.2,9.381,9.376C291.569,161.355,287.371,165.554,282.188,165.554z"/>
		</g>
		<g>
			<g>
				<path fill="#30A4C4" d="M311.288,148.459h30.109c-0.953-36.061-15.147-71.834-42.667-99.352l-21.289,21.289
					C299.084,92.036,310.346,120.106,311.288,148.459z"/>
				<path fill="#FFF0D9" d="M348.277,155.157h-43.47l-0.218-6.476c-0.921-27.79-12.246-53.911-31.886-73.546l-4.74-4.739
					l30.767-30.765l4.737,4.737c27.74,27.739,43.59,64.643,44.626,103.914L348.277,155.157z M317.601,141.759h16.75
					c-2.334-31.015-14.837-60.08-35.733-83.063L286.79,70.524C304.559,90.331,315.323,115.215,317.601,141.759z"/>
			</g>
			<g>
				<path fill="#30A4C4" d="M311.288,148.459c-0.942-28.353-12.204-56.423-33.847-78.063l-78.06,78.061L311.288,148.459z"/>
				<path fill="#FFF0D9" d="M318.213,155.157H183.207l94.235-94.237l4.737,4.737c22.053,22.05,34.769,51.377,35.807,82.579
					L318.213,155.157z M215.557,141.756l88.587,0.002c-2.21-22.965-11.566-44.483-26.847-61.743L215.557,141.756z"/>
			</g>
			<path fill="#FFF0D9" d="M246.845,149.804c-3.664,3.663-9.6,3.663-13.264,0c-3.662-3.662-3.662-9.6,0-13.265
				c3.664-3.659,9.6-3.659,13.264,0C250.507,140.204,250.504,146.14,246.845,149.804z"/>
			<circle fill="#FFF0D9" cx="266.746" cy="123.591" r="9.377"/>
			<path fill="#FFF0D9" d="M303.697,125.166c-3.661,3.664-9.6,3.664-13.262,0.002c-3.661-3.662-3.661-9.603,0-13.264
				c3.662-3.662,9.601-3.662,13.262,0.002C307.362,115.565,307.362,121.506,303.697,125.166z"/>
			<circle fill="#FFF0D9" cx="262.322" cy="96.426" r="9.377"/>
		</g>
	</g>
	<g>
		<g>
			<path fill="#FFF0D9" d="M209.217,234.058h-11.898c-5.182,0-9.38-4.198-9.38-9.38v-11.333
				c-13.976-3.167-25.513-10.5-33.687-21.503c-2.934-3.952-2.319-9.495,1.411-12.707l13.83-11.898
				c2.044-1.756,4.753-2.538,7.412-2.18c2.67,0.371,5.046,1.873,6.533,4.122c1.479,2.238,2.926,4.035,4.501,5.499v-13.076
				c-21.697-6.891-34.412-21.297-34.412-39.513c0-21.348,13.749-37.301,34.412-41.246v-3.135c0-5.181,4.199-9.38,9.38-9.38h11.898
				c5.179,0,9.381,4.199,9.381,9.38v3.219c10.646,2.168,20.231,7.811,30.164,17.596c1.787,1.761,2.795,4.166,2.798,6.678
				c0,2.51-1.006,4.916-2.793,6.679l-12.542,12.379c-3.636,3.594-9.478,3.609-13.137,0.041c-1.648-1.607-3.119-2.988-4.49-4.162
				v10.567c17.75,6.282,35.537,17.466,35.537,43.479c0,21.331-13.107,35.679-35.537,39.591v10.901
				C218.598,229.859,214.396,234.058,209.217,234.058z M202.15,197.344c0.393,0.235,0.764,0.496,1.115,0.787
				c0.35-0.291,0.725-0.552,1.114-0.787c-0.39-0.236-0.765-0.498-1.114-0.789c-0.026,0.024-0.059,0.048-0.085,0.071
				C202.852,196.888,202.506,197.129,202.15,197.344z M209.217,148.567c0.79,0,1.589,0.101,2.371,0.305
				c9.38,2.454,16.097,6.375,20.106,11.719c-3.832-5.408-11.283-9.943-25.157-14.076c-2.147-0.642-3.932-2.001-5.115-3.771
				c-2.051,0.996-4.417,1.222-6.647,0.594c-3.235-0.911-7.577-2.133-11.634-4.295c5.664,3.476,12.225,5.328,16.204,6.207
				c2.529,0.56,4.627,2.109,5.925,4.186C206.508,148.863,207.855,148.567,209.217,148.567z M202.15,97.328
				c0.388,0.232,0.761,0.496,1.115,0.786c0.355-0.291,0.727-0.554,1.117-0.786c-0.391-0.237-0.765-0.5-1.117-0.79
				C202.914,96.828,202.543,97.091,202.15,97.328z"/>
		</g>
		<g>
			<path fill="#30A4C4" d="M197.318,154.409c-18.174-4.02-34.412-14.312-34.412-32.321c0-21.548,16.237-32.483,34.412-32.802V77.708
				h11.898v11.579c12.38,0.319,22.352,5.464,32.962,15.918l-12.542,12.38c-6.433-6.271-11.898-10.933-20.42-12.218v32.159
				c22.671,6.755,35.538,16.402,35.538,36.66c0,21.227-16.081,30.231-35.538,31.197v19.295h-11.898v-19.295
				c-14.154-1.449-26.696-7.236-35.537-19.137l13.83-11.898c5.946,9.003,12.38,12.864,21.708,14.955V154.409z M197.318,105.367
				c-9.809,0.642-16.405,4.821-16.405,15.274c0,7.396,4.988,10.453,16.405,13.667V105.367z M209.217,189.303
				c8.359,0,17.524-3.217,17.524-14.634c0-9.324-7.071-13.989-17.524-16.721V189.303z"/>
		</g>
	</g>
</g>
</svg>
