<?xml version="1.0" encoding="utf-8"?>
<!-- Generator: Adobe Illustrator 16.0.0, SVG Export Plug-In . SVG Version: 6.00 Build 0)  -->
<!DOCTYPE svg PUBLIC "-//W3C//DTD SVG 1.1//EN" "http://www.w3.org/Graphics/SVG/1.1/DTD/svg11.dtd">
<svg version="1.1" id="Layer_6" xmlns="http://www.w3.org/2000/svg" xmlns:xlink="http://www.w3.org/1999/xlink" x="0px" y="0px"
	 width="400px" height="300px" viewBox="0 0 400 300" enable-background="new 0 0 400 300" xml:space="preserve">
<path fill="#30A4C4" d="M200.012,263.2c-12.152,0-22.189-9.165-23.604-20.941H45.164v46.133h309.698v-46.133H223.615
	C222.2,254.035,212.163,263.2,200.012,263.2z"/>
<path fill="#30A4C4" d="M200.013,257.503c9.005,0,16.473-6.621,17.847-15.244h-35.693
	C183.54,250.882,191.007,257.503,200.013,257.503z"/>
<polygon fill="#30A4C4" points="297.797,179.693 102.228,179.693 48.892,236.562 351.132,236.562 "/>
<g>
	<path fill="#FFF0D9" stroke="#FFF0D9" stroke-width="3" stroke-miterlimit="10" d="M185.502,103.586
		c0,12.74,4.778,19.404,8.991,25.285c3.992,5.569,7.761,10.827,7.761,21.457c0,1.813,1.471,3.285,3.285,3.285
		c1.815,0,3.285-1.472,3.285-3.285c0-12.741-4.776-19.404-8.99-25.285c-3.992-5.568-7.761-10.828-7.761-21.457
		c0-10.631,3.769-15.893,7.761-21.46c4.214-5.879,8.99-12.544,8.99-25.285c0-12.743-4.776-19.407-8.99-25.288
		c-3.992-5.569-7.761-10.827-7.761-21.458c0-1.812-1.472-3.285-3.285-3.285c-1.814,0-3.286,1.473-3.286,3.285
		c0,12.743,4.778,19.406,8.991,25.286c3.992,5.569,7.761,10.828,7.761,21.46c0,10.628-3.769,15.889-7.761,21.457
		C190.28,84.178,185.502,90.844,185.502,103.586z"/>
	<path fill="#FFF0D9" stroke="#FFF0D9" stroke-width="3" stroke-miterlimit="10" d="M241.108,103.586
		c0,12.74,4.777,19.404,8.99,25.285c3.992,5.569,7.763,10.827,7.763,21.457c0,1.813,1.47,3.285,3.285,3.285
		c1.813,0,3.284-1.472,3.284-3.285c0-12.741-4.778-19.404-8.991-25.285c-3.991-5.568-7.761-10.828-7.761-21.457
		c0-10.631,3.77-15.893,7.761-21.46c4.213-5.879,8.991-12.544,8.991-25.285c0-12.743-4.778-19.407-8.991-25.288
		c-3.991-5.569-7.761-10.827-7.761-21.458c0-1.812-1.471-3.285-3.285-3.285c-1.815,0-3.285,1.473-3.285,3.285
		c0,12.743,4.777,19.406,8.99,25.286c3.992,5.569,7.763,10.828,7.763,21.46c0,10.628-3.771,15.889-7.763,21.457
		C245.886,84.178,241.108,90.844,241.108,103.586z"/>
	<path fill="#FFF0D9" stroke="#FFF0D9" stroke-width="3" stroke-miterlimit="10" d="M129.897,103.586
		c0,12.74,4.777,19.404,8.991,25.285c3.992,5.569,7.762,10.827,7.762,21.457c0,1.813,1.471,3.285,3.285,3.285
		c1.813,0,3.285-1.472,3.285-3.285c0-12.741-4.777-19.404-8.991-25.285c-3.992-5.568-7.761-10.828-7.761-21.457
		c0-10.631,3.769-15.893,7.761-21.46c4.213-5.879,8.991-12.544,8.991-25.285c0-12.743-4.777-19.407-8.991-25.288
		c-3.992-5.569-7.761-10.827-7.761-21.458c0-1.812-1.471-3.285-3.285-3.285s-3.286,1.473-3.286,3.285
		c0,12.743,4.777,19.406,8.991,25.286c3.992,5.569,7.762,10.828,7.762,21.46c0,10.628-3.77,15.889-7.762,21.457
		C134.675,84.178,129.897,90.844,129.897,103.586z"/>
</g>
<path fill="#FFF0D9" stroke="#FFF0D9" stroke-width="3" stroke-miterlimit="10" d="M360.506,238.89
	c-0.045-0.242-0.123-0.47-0.224-0.685c-0.023-0.049-0.053-0.096-0.078-0.145c-0.104-0.188-0.224-0.364-0.366-0.525
	c-0.02-0.021-0.03-0.052-0.05-0.074l-58.68-62.565c-0.539-0.573-1.291-0.898-2.079-0.898H100.994c-0.787,0-1.539,0.325-2.078,0.898
	l-58.679,62.565c-0.021,0.022-0.032,0.053-0.052,0.074c-0.141,0.161-0.262,0.337-0.365,0.525c-0.026,0.049-0.054,0.096-0.078,0.145
	c-0.102,0.215-0.179,0.442-0.224,0.685c-0.009,0.045-0.007,0.09-0.013,0.134c-0.018,0.128-0.039,0.255-0.039,0.387v51.83
	c0,1.571,1.275,2.849,2.848,2.849h315.394c1.572,0,2.85-1.277,2.85-2.849v-51.83c0-0.132-0.022-0.259-0.039-0.387
	C360.512,238.979,360.514,238.935,360.506,238.89z M102.228,179.693h195.569l53.335,56.868H48.892L102.228,179.693z
	 M217.858,242.259c-1.373,8.623-8.843,15.244-17.846,15.244c-9.005,0-16.474-6.621-17.847-15.244H217.858z M354.861,288.392H45.164
	v-46.133h131.245c1.415,11.776,11.452,20.941,23.604,20.941c12.151,0,22.188-9.165,23.603-20.941h131.246V288.392z"/>
<polygon fill="#30A4C4" stroke="#FFF0D9" stroke-width="6" stroke-linejoin="round" stroke-miterlimit="10" points="
	305.593,223.306 273.427,191.008 126.598,191.008 94.433,223.306 "/>
</svg>
