<?xml version="1.0" encoding="utf-8"?>
<!-- Generator: Adobe Illustrator 16.0.0, SVG Export Plug-In . SVG Version: 6.00 Build 0)  -->
<!DOCTYPE svg PUBLIC "-//W3C//DTD SVG 1.1//EN" "http://www.w3.org/Graphics/SVG/1.1/DTD/svg11.dtd">
<svg version="1.1" xmlns="http://www.w3.org/2000/svg" xmlns:xlink="http://www.w3.org/1999/xlink" x="0px" y="0px" width="400px"
	 height="300px" viewBox="0 0 400 300" enable-background="new 0 0 400 300" xml:space="preserve">
<g id="Layer_1" display="none">
	<g display="inline">
		<polygon fill="#30A4C4" points="385.975,13.997 14.025,13.997 14.025,286.003 310.416,286.003 385.975,210.592 		"/>
		<path fill="#FFF0D9" d="M385.975,13.997v196.595l-75.559,75.411H14.025V13.997H385.975 M400,0h-14.025H14.025H0v13.997v272.006
			V300h14.025h296.391h5.809l4.109-4.1l75.559-75.41l4.107-4.102v-5.798V13.997V0L400,0z"/>
	</g>
	<rect x="45.118" y="48.051" display="inline" fill="#FFF0D9" width="186.522" height="13.997"/>
	<rect x="329.621" y="48.051" display="inline" fill="#FFF0D9" width="19.996" height="13.997"/>
	<g display="inline">
		<rect x="258.65" y="108.913" fill="#FFF0D9" width="93.262" height="7.999"/>
		<rect x="258.65" y="91.583" fill="#FFF0D9" width="93.262" height="7.999"/>
		<rect x="258.65" y="124.658" fill="#FFF0D9" width="51.975" height="7.999"/>
	</g>
	<g display="inline">
		<rect x="258.65" y="172.295" fill="#FFF0D9" width="93.262" height="7.998"/>
		<rect x="258.65" y="154.966" fill="#FFF0D9" width="93.262" height="7.999"/>
		<rect x="258.65" y="188.041" fill="#FFF0D9" width="51.975" height="7.999"/>
	</g>
	<g display="inline">
		<rect x="258.65" y="235.678" fill="#FFF0D9" width="93.262" height="7.999"/>
		<rect x="258.65" y="218.35" fill="#FFF0D9" width="93.262" height="7.998"/>
		<rect x="258.65" y="251.423" fill="#FFF0D9" width="51.975" height="7.999"/>
	</g>
	<path display="inline" fill="#FFF0D9" d="M216.385,164.004H64.839c-2.92,0-5.534-1.814-6.556-4.55
		c-1.022-2.736-0.237-5.819,1.968-7.733l75.774-65.777c2.634-2.284,6.545-2.283,9.176,0l75.771,65.777
		c2.207,1.914,2.991,4.997,1.969,7.733C221.92,162.189,219.307,164.004,216.385,164.004z M83.578,150.006h114.069l-57.034-49.509
		L83.578,150.006z"/>
	<path display="inline" fill="#FFF0D9" d="M194.171,256.984H87.055c-3.865,0-6.999-3.135-6.999-6.998v-92.981
		c0-3.864,3.133-6.999,6.999-6.999h107.116c3.865,0,6.999,3.133,6.999,6.999v92.981C201.17,253.852,198.036,256.984,194.171,256.984
		z M94.054,242.988h93.118v-78.984H94.054V242.988z"/>
	<path display="inline" fill="#FFF0D9" d="M159.656,256.984h-38.085c-3.865,0-6.999-3.135-6.999-6.998v-67.963
		c0-3.864,3.134-6.998,6.999-6.998h38.085c3.865,0,6.998,3.134,6.998,6.998v67.963C166.653,253.852,163.521,256.984,159.656,256.984
		z M128.569,242.988h24.087v-53.967h-24.087V242.988z"/>
	<g display="inline">
		<polyline fill="#30A4C4" points="386.533,209.668 310.199,209.668 310.199,286.003 		"/>
		<polygon fill="#FFF0D9" points="317.197,293.001 303.201,293.001 303.201,202.67 393.531,202.67 393.531,216.667 317.197,216.667 
					"/>
	</g>
</g>
<g id="Layer_2" display="none">
	<rect x="237.659" y="250.189" display="inline" fill="none" width="82.346" height="29.314"/>
	
		<text transform="matrix(1 0 0 1 244.2295 271.0947)" display="inline" fill="#FFF0D9" font-family="'TradeGothicLTStd-Bd2'" font-size="28.9556">Value</text>
	<rect x="153.659" y="28.577" display="inline" fill="none" width="82.346" height="29.314"/>
	
		<text transform="matrix(1 0 0 1 171.5083 49.4829)" display="inline" fill="#FFF0D9" font-family="'TradeGothicLTStd-Bd2'" font-size="28.9556">Key</text>
	<path display="inline" fill="#5B5B5B" stroke="#FFF0D9" stroke-width="5" stroke-miterlimit="10" d="M353.249,207.986h-26.543
		v-14.1c0-1.718-1.396-3.115-3.115-3.115H71.888c-20.678,0-37.5-16.822-37.5-37.5c0-20.677,16.822-37.5,37.5-37.5h251.703
		c6.042,0,10.958-4.915,10.958-10.957s-4.916-10.958-10.958-10.958H71.887c-16.354,0-29.658-13.304-29.658-29.658V45.917h26.542
		v18.283c0,1.718,1.397,3.115,3.115,3.115h251.704c20.678,0,37.5,16.822,37.5,37.5c0,20.677-16.822,37.5-37.5,37.5H71.888
		c-6.042,0-10.958,4.916-10.958,10.957c0,6.042,4.916,10.958,10.958,10.958h251.703c16.354,0,29.658,13.304,29.658,29.657V207.986z"
		/>
	
		<rect x="87.274" y="62.521" display="inline" fill="#5B5B5B" stroke="#FFF0D9" stroke-width="5" stroke-miterlimit="10" width="21.226" height="34.5"/>
	
		<rect x="283.857" y="62.521" display="inline" fill="#5B5B5B" stroke="#FFF0D9" stroke-width="5" stroke-miterlimit="10" width="21.225" height="34.5"/>
	
		<rect x="87.274" y="111.637" display="inline" fill="#5B5B5B" stroke="#FFF0D9" stroke-width="5" stroke-miterlimit="10" width="21.226" height="34.498"/>
	
		<rect x="283.857" y="111.637" display="inline" fill="#5B5B5B" stroke="#FFF0D9" stroke-width="5" stroke-miterlimit="10" width="21.225" height="34.498"/>
	
		<rect x="87.274" y="160.752" display="inline" fill="#5B5B5B" stroke="#FFF0D9" stroke-width="5" stroke-miterlimit="10" width="21.226" height="34.5"/>
	
		<rect x="283.857" y="160.752" display="inline" fill="#5B5B5B" stroke="#FFF0D9" stroke-width="5" stroke-miterlimit="10" width="21.225" height="34.5"/>
	
		<rect x="38.477" y="24.647" display="inline" fill="#5B5B5B" stroke="#FFF0D9" stroke-width="5" stroke-miterlimit="10" width="34.5" height="21.225"/>
	
		<rect x="322.829" y="206.827" display="inline" fill="#5B5B5B" stroke="#FFF0D9" stroke-width="5" stroke-miterlimit="10" width="34.5" height="21.225"/>
	<path display="inline" fill="#30A4C4" stroke="#FFF0D9" stroke-width="5" stroke-miterlimit="10" d="M351.359,270.791
		c0,6.006-4.87,10.877-10.877,10.877s-10.878-4.871-10.878-10.877c0-6.009,10.878-27.73,10.878-27.73
		S351.359,264.782,351.359,270.791z"/>
</g>
<g id="Layer_3" display="none">
	<g display="inline">
		<g>
			<g>
				<g>
					<path fill="#30A4C4" d="M262.909,111.907l13.669-7.779c-23.178-8.22-50.057-12.871-77.897-12.871l-0.087,9.462
						C221.871,100.72,244.129,104.799,262.909,111.907z"/>
					<path fill="#FFF0D9" d="M264.389,115.555l-4.547-1.753c-18.497-7.128-39.843-10.809-61.265-10.809h-5.17l0.561-13.691h4.728
						c27.693,0,55.606,4.414,80.638,13.148l4.68,1.635L264.389,115.555z M203.645,98.571c20.006,0.471,39.878,3.81,57.774,9.884
						l7.643-4.243c-20.444-6.782-42.962-10.451-65.538-10.901L203.645,98.571z"/>
				</g>
				<g>
					<path fill="#30A4C4" d="M262.909,111.907c-18.78-7.108-41.038-11.187-64.315-11.187l-0.416,48.052L262.909,111.907z"/>
					<path fill="#FFF0D9" d="M191.154,158.357l2.438-59.844h5.023c23.389,0,46.791,3.911,67.298,11.542l4.818,1.791L191.154,158.357
						z M203.749,103.065l0.86,36.926l50.374-27.96C239.184,106.583,221.57,103.548,203.749,103.065z"/>
				</g>
				<path fill="#FFF0D9" d="M229.704,131.809c0.387,2.501-3.194,4.583-8.019,4.583c-4.817,0-8.867-2.083-9.035-4.583
					c-0.161-2.444,3.438-4.379,8.042-4.379C225.291,127.43,229.323,129.365,229.704,131.809z"/>
				<path fill="#FFF0D9" d="M231.582,117.41c0.387,2.137-2.9,3.911-7.354,3.911c-4.448,0-8.215-1.773-8.405-3.911
					c-0.185-2.088,3.114-3.747,7.371-3.747C227.457,113.663,231.206,115.321,231.582,117.41z"/>
				<path fill="#FFF0D9" d="M244.036,107.762c0.509,1.909-2.478,3.489-6.678,3.489c-4.199,0-7.88-1.58-8.215-3.489
					c-0.329-1.869,2.681-3.351,6.707-3.351C239.883,104.412,243.546,105.894,244.036,107.762z"/>
				<path fill="#FFF0D9" d="M212.356,111.084c0.145,1.987-3.212,3.634-7.499,3.634c-4.281,0-7.73-1.646-7.696-3.634
					c0.032-1.944,3.388-3.483,7.494-3.483C208.769,107.601,212.212,109.14,212.356,111.084z"/>
			</g>
			<g>
				<g>
					<path fill="#30A4C4" d="M198.597,100.723l0.084-9.465c-25.849,0.277-53.009,4.616-77.731,13.775l13.625,7.868
						C154.517,104.911,176.986,101.038,198.597,100.723z"/>
					<path fill="#FFF0D9" d="M133.143,116.656l-19.595-11.623l4.538-1.652c24.829-9.049,52.703-13.781,80.486-14.078l4.854-0.055
						l0.318,13.671l-4.993,0.075c-21.481,0.318-42.734,4.324-60.963,11.765L133.143,116.656z M128.423,105.073l7.611,4.283
						c17.703-6.354,37.506-9.974,57.552-10.719l0.213-5.271C171.166,94.083,148.694,98.02,128.423,105.073z"/>
				</g>
				<g>
					<path fill="#30A4C4" d="M198.597,100.723c-21.611,0.315-44.08,4.188-64.022,12.178l63.595,36.729L198.597,100.723z"/>
					<path fill="#FFF0D9" d="M205.055,159.299l-78.235-46.398l4.616-1.814c20.245-7.969,43.563-12.232,67.014-12.573l5.189-0.072
						L205.055,159.299z M142.432,112.958l49.436,27.824l1.534-37.636C175.556,103.915,158.023,107.233,142.432,112.958z"/>
				</g>
				<path fill="#FFF0D9" d="M199.565,125.639c3.242,1.652,3.289,4.396-0.015,6.129c-3.365,1.765-8.812,1.765-12.053,0
					c-3.183-1.733-2.958-4.477,0.398-6.129C191.197,124.018,196.373,124.018,199.565,125.639z"/>
				<path fill="#FFF0D9" d="M183.407,114.495c2.912,1.456,2.727,3.874-0.517,5.398c-3.296,1.545-8.403,1.545-11.3-0.006
					c-2.854-1.522-2.426-3.939,0.855-5.393C175.678,113.06,180.542,113.06,183.407,114.495z"/>
				<path fill="#FFF0D9" d="M180.57,103.3c2.701,1.276,2.484,3.385-0.563,4.714c-3.099,1.349-7.862,1.349-10.549,0
					c-2.646-1.329-2.224-3.438,0.867-4.714C173.361,102.046,177.916,102.046,180.57,103.3z"/>
				<path fill="#FFF0D9" d="M160.56,116.257c2.747,1.488,2.235,3.955-1.239,5.508c-3.541,1.583-8.697,1.583-11.424,0
					c-2.677-1.554-1.921-4.021,1.595-5.508C152.945,114.792,157.862,114.792,160.56,116.257z"/>
			</g>
			<g>
				<g>
					<path fill="#30A4C4" d="M134.575,112.901l-13.625-7.868c-25.282,9.783-48.19,25.008-61.824,45.207h30.022
						C97.762,134.021,114.714,121.32,134.575,112.901z"/>
					<path fill="#FFF0D9" d="M93.872,154.163H49.672l2.77-3.924c14.385-20.343,37.942-36.322,65.527-46.815l4.488-1.707
						l19.769,11.126l-4.287,1.854c-19.5,8.42-34.71,20.716-42.11,35.542L93.872,154.163z M68.393,146.461h16.38
						c9.038-13.737,23.962-25.167,42.226-33.454l-7.544-4.472C97.967,117.687,79.912,130.601,68.393,146.461z"/>
				</g>
				<g>
					<path fill="#30A4C4" d="M134.575,112.901c-19.861,8.419-36.813,21.12-45.426,37.338H199.23L134.575,112.901z"/>
					<path fill="#FFF0D9" d="M215.649,154.163H80.258l2.209-3.924c9.292-16.501,26.909-29.976,48.814-39.092l4.561-1.898
						L215.649,154.163z M97.915,146.461h85.492l-50.048-29.679C117.684,124.304,105.186,134.46,97.915,146.461z"/>
				</g>
				<path fill="#FFF0D9" d="M169.6,132.129c4.72,0,8.31,2.034,8.016,4.604c-0.303,2.637-4.567,4.829-9.521,4.829
					c-4.948,0-8.515-2.192-7.978-4.829C160.646,134.163,164.886,132.129,169.6,132.129z"/>
				<path fill="#FFF0D9" d="M140.644,129.804c4.653,0,7.897,1.981,7.221,4.489c-0.699,2.574-5.24,4.708-10.124,4.708
					c-4.887,0-8.082-2.134-7.154-4.708C131.49,131.785,135.982,129.804,140.644,129.804z"/>
				<path fill="#FFF0D9" d="M121.618,121.803c4.459,0,7.368,1.817,6.476,4.11c-0.916,2.354-5.468,4.307-10.135,4.307
					c-4.67,0-7.519-1.953-6.389-4.307C112.667,123.62,117.158,121.803,121.618,121.803z"/>
				<path fill="#FFF0D9" d="M121.843,140.861c4.931,0,8.16,2.224,7.181,5.04c-1.005,2.892-6.048,5.299-11.236,5.299
					c-5.19,0-8.345-2.408-7.083-5.299C111.938,143.085,116.907,140.861,121.843,140.861z"/>
			</g>
			<g>
				<g>
					<path fill="#30A4C4" d="M89.149,150.239H59.126c-14.474,23.011-15.904,51.462,5.517,78.602l37.151-21.455
						C83.172,188.634,80.781,167.918,89.149,150.239z"/>
					<path fill="#FFF0D9" d="M59.606,239.54l-4.055-5.448c-21.059-28.295-19.923-58.415-3.175-83.749l2.565-3.882h42.561
						l-1.612,3.654c-7.625,17.271-3.804,36.329,13.426,52.926l4.515,4.345L59.606,239.54z M63.635,154.163
						c-10.396,20.266-9.509,43.102,5.907,64.598l20.424-11.496c-13.951-17.25-16.415-35.996-9.312-53.102H63.635z"/>
				</g>
				<g>
					<path fill="#30A4C4" d="M89.149,150.239c-8.368,17.679-5.977,38.395,12.646,57.146l98.94-57.144L89.149,150.239z"/>
					<path fill="#FFF0D9" d="M98.418,216.524l-4.405-4.645c-18.679-19.711-21.539-41.87-11.614-61.51l1.979-3.908h132.185
						L98.418,216.524z M94.328,154.163c-4.881,14.645-1.644,30.317,10.846,44.546l79.146-44.546H94.328z"/>
				</g>
				<path fill="#FFF0D9" d="M153.581,149.471c4.064-2.068,9.901-2.071,13.174,0c3.339,2.11,2.839,5.623-1.251,7.852
					c-4.183,2.271-10.37,2.271-13.677,0C148.587,155.094,149.436,151.581,153.581,149.471z"/>
				<path fill="#FFF0D9" d="M123.091,161.274c4.613-2.311,10.782-2.311,13.928,0c3.207,2.363,2.149,6.291-2.524,8.793
					c-4.777,2.547-11.331,2.547-14.479,0C116.933,167.565,118.38,163.638,123.091,161.274z"/>
				<path fill="#FFF0D9" d="M89.64,164.55c5.035-2.386,11.3-2.386,14.13-0.006c2.897,2.433,1.216,6.482-3.908,9.059
					c-5.242,2.629-11.903,2.629-14.702-0.006C82.416,171.026,84.49,166.977,89.64,164.55z"/>
				<path fill="#FFF0D9" d="M121.56,180.062c5.017-2.716,11.707-2.722,15.112,0c3.483,2.784,2.331,7.429-2.762,10.387
					c-5.213,3.032-12.356,3.032-15.771,0C114.81,187.49,116.424,182.846,121.56,180.062z"/>
			</g>
			<g>
				<g>
					<path fill="#30A4C4" d="M101.794,207.386l-37.151,21.455c25.6,29.838,75.301,51.472,138.297,51.472l-0.353-40.184
						C158.928,240.129,122.86,226.778,101.794,207.386z"/>
					<path fill="#FFF0D9" d="M214.211,290.774h-11.179c-65.462,0-119.695-22.426-147.375-56.544l-4.263-5.251l53.317-30.005
						l4.451,3.928c20.765,18.319,54.753,29.549,93.362,29.549h9.312L214.211,290.774z M78.101,228.569
						c24.887,23.882,65.859,39.577,114.231,41.675l0.514-22.241c-38.638-1.779-72.156-13.541-93.969-31.756L78.101,228.569z"/>
				</g>
				<g>
					<path fill="#30A4C4" d="M101.794,207.386c21.065,19.393,57.133,32.743,100.793,32.743l-0.792-90.499L101.794,207.386z"/>
					<path fill="#FFF0D9" d="M212.478,248.229h-9.82c-45.7,0-85.329-13.917-108.497-36.204l-4.667-4.488l118.606-66.753
						L212.478,248.229z M114.321,207.091c19.171,14.396,47.139,23.575,78.895,25.136l1.695-72.928L114.321,207.091z"/>
				</g>
				<path fill="#FFF0D9" d="M164.289,170.09c0.549-3.512,5.439-6.285,10.938-6.285c5.502,0,9.774,2.773,9.541,6.285
					c-0.24,3.628-5.156,6.655-10.979,6.655C167.968,176.745,163.722,173.718,164.289,170.09z"/>
				<path fill="#FFF0D9" d="M154.445,195.018c0.774-4.315,6.314-7.706,12.397-7.706s10.705,3.391,10.317,7.706
					c-0.404,4.471-5.991,8.209-12.463,8.209C158.217,203.227,153.639,199.488,154.445,195.018z"/>
				<path fill="#FFF0D9" d="M126.672,218.159c1.36-5.136,7.79-9.156,14.411-9.156c6.62,0,11.276,4.021,10.378,9.156
					c-0.936,5.326-7.464,9.81-14.552,9.81C129.821,227.969,125.26,223.485,126.672,218.159z"/>
				<path fill="#FFF0D9" d="M180.443,209.425c0.353-4.812,5.826-8.596,12.244-8.596c6.415,0,11.68,3.783,11.76,8.596
					c0.087,4.997-5.402,9.186-12.262,9.186C185.331,218.61,180.077,214.422,180.443,209.425z"/>
			</g>
			<g>
				<g>
					<path fill="#30A4C4" d="M202.588,240.129l0.353,40.184c58.109-1.433,108.714-21.479,134.583-54.256L300.546,205
						C279.27,226.438,242.881,239.031,202.588,240.129z"/>
					<path fill="#FFF0D9" d="M191.844,291.063l1.357-58.363l9.01-0.249c38.485-1.022,71.472-13.056,90.842-31.721l4.286-4.136
						l53.061,29.462l-3.83,5.152c-25.562,34.344-78.046,57.902-143.243,59.565L191.844,291.063z M212.454,247.743l0.907,22.229
						c48.052-3.293,87.779-19.844,111.077-44.037l-20.681-12.086C283.313,232.423,250.818,244.958,212.454,247.743z"/>
				</g>
				<g>
					<path fill="#30A4C4" d="M202.588,240.129c40.293-1.098,76.682-13.691,97.958-35.129l-98.75-56.228L202.588,240.129z"/>
					<path fill="#FFF0D9" d="M192.835,248.505l2.527-108.511L312.475,205l-4.182,4.407c-21.45,22.646-59.797,37.526-105.307,38.815
						L192.835,248.505z M208.821,158.363l2.992,73.592c31.495-2.433,58.601-12.322,76.578-27.088L208.821,158.363z"/>
				</g>
				<path fill="#FFF0D9" d="M200.532,179.674c-4.127-2.709-4.067-6.973-0.022-9.525c3.949-2.502,10.362-2.502,14.486,0
					c4.212,2.553,4.563,6.816,0.63,9.525C211.588,182.447,204.754,182.447,200.532,179.674z"/>
				<path fill="#FFF0D9" d="M224.887,201.326c-4.801-3.212-5.193-8.272-1.081-11.294c4.01-2.946,10.977-2.946,15.742,0
					c4.882,3.026,5.777,8.082,1.803,11.294C237.271,204.636,229.809,204.636,224.887,201.326z"/>
				<path fill="#FFF0D9" d="M234.782,231.464c-5.488-4.01-6.13-10.271-1.688-13.998c4.327-3.633,12.057-3.633,17.487,0
					c5.58,3.727,6.834,9.988,2.564,13.998C248.762,235.582,240.414,235.582,234.782,231.464z"/>
				<path fill="#FFF0D9" d="M257.728,197.449c-5.124-3.119-6.152-8.035-2.473-10.964c3.588-2.866,10.451-2.866,15.517,0
					c5.193,2.929,6.695,7.845,3.172,10.97C270.339,200.655,262.984,200.655,257.728,197.449z"/>
			</g>
			<g>
				<g>
					<path fill="#30A4C4" d="M300.546,205l36.978,21.057c18.423-25.447,18.475-53.367,1.924-77.891H309.72
						C319.714,166.977,316.548,187.306,300.546,205z"/>
					<path fill="#FFF0D9" d="M342.844,236.697l-53.979-31.553l4.044-4.27c15.973-16.846,18.642-35.782,10.196-52.709l-1.849-3.706
						h42.183l2.616,3.706c17.498,24.75,19.942,54.477,0.612,82.9L342.844,236.697z M312.019,204.746l20.341,11.293
						c14.096-21.594,13.898-44.181,2.784-64.03h-16.828C326.178,168.779,324.769,187.357,312.019,204.746z"/>
				</g>
				<g>
					<path fill="#30A4C4" d="M300.546,205c16.002-17.694,19.168-38.023,9.174-56.834H200.731L300.546,205z"/>
					<path fill="#FFF0D9" d="M304.237,214.127l-119.201-69.667h129.213l2.085,3.706c10.814,19.198,9.267,41.144-7.902,61.097
						L304.237,214.127z M217.013,152.009l79.842,44.326c11.386-14.391,13.616-29.959,7.966-44.326H217.013z"/>
				</g>
				<path fill="#FFF0D9" d="M236.348,169.628c-5.649,0-10.549-2.842-10.941-6.262c-0.381-3.311,3.651-5.922,9-5.922
					c5.338,0,10.208,2.611,10.884,5.922C245.989,166.786,241.991,169.628,236.348,169.628z"/>
				<path fill="#FFF0D9" d="M272.961,173.054c-5.725,0-11.166-2.929-12.113-6.447c-0.925-3.408,2.743-6.095,8.162-6.095
					s10.78,2.687,12.005,6.095C282.285,170.119,278.697,173.054,272.961,173.054z"/>
				<path fill="#FFF0D9" d="M306.444,186.416c-6.066,0-12.253-3.275-13.784-7.204c-1.484-3.796,1.987-6.788,7.701-6.788
					c5.713,0,11.784,2.992,13.604,6.788C315.849,183.141,312.504,186.416,306.444,186.416z"/>
				<path fill="#FFF0D9" d="M284.954,158.265c-5.367,0-10.606-2.57-11.681-5.661c-1.04-2.997,2.265-5.365,7.354-5.365
					c5.096,0,10.254,2.369,11.565,5.365C293.538,155.694,290.32,158.265,284.954,158.265z"/>
			</g>
			<g>
				<g>
					<path fill="#30A4C4" d="M309.72,148.166h29.728c-13.345-18.498-35.349-33.838-62.869-44.037l-13.669,7.779
						C284.647,120.619,300.985,133.339,309.72,148.166z"/>
					<path fill="#FFF0D9" d="M348.956,152.009h-43.714l-2.073-3.719c-8.117-14.566-23.772-26.507-43.478-34.548l-4.494-1.834
						l19.855-11.017l4.396,1.603c27.642,10.072,51.5,25.609,66.537,45.571L348.956,152.009z M313.873,144.459h16.239
						c-12.068-15.557-30.422-28.116-52.016-36.917l-7.556,4.414C288.975,119.902,304.255,130.997,313.873,144.459z"/>
				</g>
				<g>
					<path fill="#30A4C4" d="M309.72,148.166c-8.734-14.826-25.072-27.547-46.811-36.258l-63.668,36.258H309.72z"/>
					<path fill="#FFF0D9" d="M318.726,152.009H182.959l78.639-43.651l4.465,1.756c22.085,8.694,40.144,21.75,50.195,37.925
						L318.726,152.009z M214.938,144.459h85.885c-7.862-11.756-20.751-21.594-36.637-28.786L214.938,144.459z"/>
				</g>
				<path fill="#FFF0D9" d="M246.272,148.925c-3.2,2.101-9.14,2.101-13.148,0c-3.923-2.054-4.379-5.309-1.155-7.262
					c3.16-1.915,8.781-1.915,12.68,0C248.623,143.616,249.397,146.869,246.272,148.925z"/>
				<path fill="#FFF0D9" d="M268.865,138.379c-2.813,1.889-8.451,1.889-12.472,0c-3.94-1.854-4.731-4.789-1.878-6.554
					c2.802-1.733,8.151-1.733,12.057-0.003C270.553,133.59,271.627,136.525,268.865,138.379z"/>
				<path fill="#FFF0D9" d="M296.121,135.829c-2.519,1.843-8.082,1.843-12.311,0.003c-4.148-1.808-5.332-4.668-2.756-6.389
					c2.524-1.693,7.811-1.693,11.906,0C297.132,131.164,298.599,134.024,296.121,135.829z"/>
				<path fill="#FFF0D9" d="M260.442,125.411c-2.703,1.646-7.966,1.646-11.651,0c-3.622-1.621-4.258-4.186-1.52-5.734
					c2.687-1.522,7.695-1.522,11.288,0C262.217,121.225,263.101,123.79,260.442,125.411z"/>
			</g>
		</g>
		<g>
			<g>
				<path fill="#FFF0D9" d="M213.841,102.255h-6.62c-2.883,0-5.217-2.337-5.217-5.219V90.73c-7.775-1.759-14.193-5.84-18.741-11.961
					c-1.634-2.198-1.29-5.283,0.784-7.068l7.693-6.619c1.138-0.978,2.646-1.414,4.123-1.213c1.486,0.207,2.809,1.041,3.635,2.293
					c0.822,1.245,1.627,2.244,2.505,3.057v-7.273c-12.072-3.833-19.146-11.847-19.146-21.981c0-11.875,7.649-20.752,19.146-22.946
					v-1.745c0-2.881,2.334-5.218,5.217-5.218h6.62c2.88,0,5.217,2.337,5.217,5.218v1.791c5.924,1.208,11.256,4.346,16.781,9.789
					c0.994,0.98,1.555,2.318,1.555,3.716c0,1.396-0.558,2.735-1.552,3.714l-6.979,6.888c-2.021,1.999-5.271,2.007-7.308,0.021
					c-0.915-0.893-1.735-1.661-2.498-2.313v5.878c9.875,3.495,19.769,9.717,19.769,24.188c0,11.867-7.291,19.85-19.769,22.024v6.064
					C219.058,99.918,216.721,102.255,213.841,102.255z M209.907,81.83c0.219,0.131,0.427,0.278,0.624,0.439
					c0.193-0.161,0.401-0.308,0.617-0.439c-0.216-0.13-0.424-0.277-0.617-0.438c-0.018,0.013-0.035,0.026-0.05,0.039
					C210.3,81.577,210.109,81.711,209.907,81.83z M213.841,54.697c0.439,0,0.884,0.055,1.317,0.167
					c5.222,1.365,8.957,3.547,11.184,6.521c-2.129-3.008-6.273-5.533-13.991-7.831c-1.196-0.357-2.189-1.114-2.848-2.099
					c-1.139,0.555-2.456,0.68-3.697,0.331c-1.797-0.507-4.218-1.187-6.472-2.389c3.149,1.934,6.801,2.964,9.013,3.453
					c1.407,0.311,2.577,1.173,3.299,2.328C212.333,54.862,213.084,54.697,213.841,54.697z M209.907,26.191
					c0.219,0.13,0.427,0.276,0.624,0.438c0.196-0.162,0.404-0.308,0.617-0.438c-0.213-0.131-0.421-0.279-0.617-0.439
					C210.334,25.913,210.126,26.06,209.907,26.191z"/>
			</g>
			<g>
				<path fill="#30A4C4" d="M207.221,57.947c-10.109-2.237-19.145-7.962-19.145-17.98c0-11.988,9.035-18.071,19.145-18.249v-6.441
					h6.62v6.441c6.886,0.178,12.432,3.04,18.336,8.856l-6.979,6.886c-3.576-3.488-6.62-6.08-11.357-6.795v17.89
					c12.611,3.758,19.769,9.125,19.769,20.394c0,11.808-8.945,16.819-19.769,17.357v10.732h-6.62V86.304
					c-7.873-0.808-14.851-4.027-19.77-10.647l7.693-6.619c3.309,5.008,6.889,7.156,12.077,8.318V57.947z M207.221,30.664
					c-5.459,0.355-9.126,2.681-9.126,8.497c0,4.116,2.774,5.816,9.126,7.604V30.664z M213.841,77.357c4.65,0,9.746-1.789,9.746-8.14
					c0-5.189-3.935-7.783-9.746-9.303V77.357z"/>
			</g>
		</g>
		<g>
			<g>
				<path fill="#FFF0D9" d="M277.352,170.783h-10.017c-4.362,0-7.897-3.535-7.897-7.896v-9.541
					c-11.762-2.666-21.476-8.84-28.358-18.103c-2.47-3.325-1.95-7.994,1.19-10.696l11.64-10.017
					c1.722-1.479,4.004-2.137,6.239-1.835c2.247,0.313,4.252,1.579,5.503,3.47c1.244,1.886,2.464,3.398,3.786,4.629v-11.008
					c-18.264-5.8-28.968-17.929-28.968-33.263c0-17.972,11.574-31.403,28.968-34.724v-2.64c0-4.362,3.535-7.897,7.897-7.897h10.017
					c4.361,0,7.897,3.535,7.897,7.897v2.71c8.966,1.826,17.036,6.576,25.395,14.813c1.508,1.482,2.354,3.507,2.357,5.621
					c0,2.113-0.847,4.139-2.352,5.624l-10.56,10.421c-3.062,3.026-7.979,3.039-11.058,0.035c-1.389-1.353-2.628-2.516-3.783-3.503
					v8.896c14.944,5.289,29.918,14.703,29.918,36.604c0,17.959-11.034,30.04-29.918,33.333v9.174
					C285.249,167.248,281.713,170.783,277.352,170.783z M271.404,139.875c0.332,0.199,0.645,0.421,0.938,0.664
					c0.298-0.243,0.612-0.465,0.942-0.663c-0.33-0.198-0.645-0.42-0.942-0.663c-0.022,0.02-0.046,0.039-0.069,0.059
					C271.997,139.493,271.708,139.695,271.404,139.875z M277.352,98.814c0.67,0,1.341,0.085,1.999,0.255
					c7.896,2.065,13.553,5.367,16.926,9.867c-3.223-4.552-9.497-8.371-21.178-11.85c-1.808-0.54-3.31-1.685-4.31-3.176
					c-1.722,0.839-3.715,1.03-5.592,0.5c-2.724-0.766-6.381-1.795-9.798-3.615c4.771,2.926,10.295,4.484,13.643,5.225
					c2.129,0.473,3.896,1.776,4.991,3.524C275.073,99.062,276.208,98.814,277.352,98.814z M271.404,55.677
					c0.326,0.196,0.642,0.417,0.938,0.663c0.301-0.246,0.612-0.466,0.942-0.663c-0.33-0.2-0.645-0.42-0.942-0.665
					C272.049,55.256,271.733,55.477,271.404,55.677z"/>
			</g>
			<g>
				<path fill="#30A4C4" d="M267.335,103.731c-15.298-3.384-28.969-12.048-28.969-27.209c0-18.141,13.671-27.346,28.969-27.616
					v-9.747h10.017v9.747c10.422,0.27,18.818,4.601,27.752,13.402l-10.56,10.421c-5.413-5.28-10.018-9.204-17.192-10.286v27.073
					c19.087,5.687,29.919,13.808,29.919,30.863c0,17.869-13.535,25.451-29.919,26.265v16.242h-10.017v-16.242
					c-11.912-1.221-22.473-6.093-29.916-16.112l11.644-10.016c5.006,7.579,10.422,10.829,18.272,12.589V103.731z M267.335,62.444
					c-8.256,0.54-13.807,4.058-13.807,12.859c0,6.228,4.196,8.8,13.807,11.506V62.444z M277.352,133.107
					c7.039,0,14.754-2.708,14.754-12.319c0-7.851-5.953-11.776-14.754-14.077V133.107z"/>
			</g>
		</g>
		<g>
			<g>
				<path fill="#FFF0D9" d="M139.735,205.223h-13.131c-5.718,0-10.352-4.637-10.352-10.353v-12.51
					c-15.421-3.492-28.154-11.589-37.176-23.731c-3.239-4.355-2.559-10.478,1.557-14.021l15.262-13.131
					c2.256-1.939,5.246-2.802,8.179-2.406c2.946,0.41,5.572,2.068,7.211,4.549c1.632,2.471,3.229,4.454,4.967,6.067v-14.431
					c-23.945-7.604-37.977-23.501-37.977-43.605c0-23.56,15.174-41.166,37.977-45.519v-3.46c0-5.717,4.634-10.352,10.352-10.352
					h13.131c5.718,0,10.352,4.635,10.352,10.352v3.553c11.751,2.393,22.329,8.62,33.291,19.418c1.973,1.944,3.085,4.599,3.086,7.37
					c0.001,2.77-1.108,5.426-3.081,7.371l-13.841,13.663c-4.014,3.966-10.46,3.983-14.499,0.044
					c-1.82-1.773-3.441-3.297-4.957-4.592v11.662c19.589,6.934,39.219,19.276,39.219,47.984c0,23.544-14.464,39.378-39.219,43.693
					v12.03C150.087,200.586,145.453,205.223,139.735,205.223z M131.938,164.7c0.433,0.263,0.845,0.555,1.232,0.872
					c0.387-0.317,0.799-0.609,1.23-0.869c-0.432-0.26-0.843-0.552-1.23-0.869c-0.032,0.025-0.063,0.052-0.095,0.078
					C132.712,164.203,132.332,164.467,131.938,164.7z M139.735,110.875c0.875,0,1.755,0.111,2.618,0.336
					c10.354,2.707,17.766,7.035,22.189,12.933c-4.227-5.968-12.452-10.973-27.764-15.534c-2.37-0.708-4.337-2.208-5.645-4.162
					c-2.262,1.099-4.873,1.349-7.334,0.656c-3.57-1.005-8.363-2.354-12.84-4.74c6.25,3.836,13.49,5.879,17.881,6.85
					c2.79,0.618,5.108,2.328,6.542,4.62C136.747,111.201,138.235,110.875,139.735,110.875z M131.938,54.326
					c0.429,0.257,0.84,0.547,1.232,0.868c0.392-0.321,0.803-0.611,1.232-0.868c-0.432-0.261-0.843-0.552-1.232-0.871
					C132.781,53.774,132.37,54.065,131.938,54.326z"/>
			</g>
			<g>
				<path fill="#30A4C4" d="M126.604,117.321c-20.054-4.437-37.977-15.794-37.977-35.669c0-23.781,17.923-35.849,37.977-36.201
					V32.673h13.131v12.779c13.662,0.352,24.667,6.031,36.377,17.567l-13.841,13.662c-7.097-6.92-13.131-12.065-22.536-13.483v35.49
					c25.02,7.455,39.219,18.102,39.219,40.458c0,23.425-17.747,33.364-39.219,34.43v21.294h-13.131v-21.294
					c-15.618-1.6-29.459-7.986-39.219-21.12l15.263-13.13c6.562,9.936,13.662,14.197,23.957,16.504V117.321z M126.604,63.198
					c-10.826,0.708-18.102,5.32-18.102,16.856c0,8.163,5.502,11.537,18.102,15.083V63.198z M139.735,155.83
					c9.226,0,19.341-3.55,19.341-16.149c0-10.292-7.805-15.438-19.341-18.454V155.83z"/>
			</g>
		</g>
	</g>
</g>
<g id="Layer_4" display="none">
	<g display="inline">
		<g>
			<g>
				<g>
					<path fill="#30A4C4" d="M263.236,72.361l13.725-7.812c-23.274-8.256-50.273-12.926-78.232-12.926l-0.087,9.503
						C222.021,61.126,244.375,65.222,263.236,72.361z"/>
					<path fill="#FFF0D9" d="M264.719,76.025l-4.563-1.761c-18.577-7.16-40.015-10.855-61.531-10.855h-5.193l0.563-13.75h4.749
						c27.814,0,55.846,4.433,80.985,13.205l4.702,1.642L264.719,76.025z M203.713,58.968c20.092,0.473,40.05,3.826,58.023,9.927
						l7.676-4.261c-20.532-6.812-43.147-10.496-65.821-10.948L203.713,58.968z"/>
				</g>
				<g>
					<path fill="#30A4C4" d="M263.236,72.361c-18.861-7.139-41.216-11.235-64.595-11.235l-0.417,48.259L263.236,72.361z"/>
					<path fill="#FFF0D9" d="M191.169,119.011l2.449-60.101h5.044c23.491,0,46.992,3.928,67.588,11.592l4.839,1.799L191.169,119.011
						z M203.817,63.481l0.864,37.085l50.592-28.081C239.408,67.015,221.719,63.966,203.817,63.481z"/>
				</g>
				<path fill="#FFF0D9" d="M229.885,92.349c0.392,2.512-3.209,4.604-8.05,4.604c-4.842,0-8.906-2.092-9.074-4.604
					c-0.163-2.455,3.452-4.398,8.073-4.398S229.502,89.894,229.885,92.349z"/>
				<path fill="#FFF0D9" d="M231.773,77.887c0.389,2.147-2.916,3.928-7.386,3.928c-4.468,0-8.25-1.781-8.442-3.928
					c-0.188-2.097,3.128-3.762,7.403-3.762C227.628,74.125,231.396,75.79,231.773,77.887z"/>
				<path fill="#FFF0D9" d="M244.282,68.198c0.51,1.917-2.489,3.504-6.707,3.504s-7.917-1.587-8.253-3.504
					c-0.328-1.877,2.694-3.365,6.738-3.365C240.11,64.833,243.786,66.321,244.282,68.198z"/>
				<path fill="#FFF0D9" d="M212.462,71.534c0.145,1.996-3.223,3.649-7.528,3.649c-4.302,0-7.766-1.653-7.73-3.649
					c0.032-1.952,3.402-3.499,7.527-3.499C208.858,68.036,212.316,69.582,212.462,71.534z"/>
			</g>
			<g>
				<g>
					<path fill="#30A4C4" d="M198.645,61.129l0.084-9.506c-25.96,0.278-53.238,4.636-78.066,13.834l13.684,7.902
						C154.374,65.335,176.94,61.445,198.645,61.129z"/>
					<path fill="#FFF0D9" d="M132.907,77.13l-19.68-11.673l4.557-1.659c24.937-9.089,52.93-13.84,80.834-14.139l4.874-0.055
						l0.322,13.73l-5.016,0.075c-21.574,0.319-42.919,4.343-61.227,11.815L132.907,77.13z M128.167,65.498l7.644,4.302
						c17.78-6.382,37.668-10.017,57.801-10.766l0.214-5.294C171.095,54.459,148.526,58.414,128.167,65.498z"/>
				</g>
				<g>
					<path fill="#30A4C4" d="M198.645,61.129c-21.705,0.316-44.271,4.206-64.298,12.23l63.869,36.888L198.645,61.129z"/>
					<path fill="#FFF0D9" d="M205.131,119.959l-78.574-46.601l4.636-1.822c20.333-8.003,43.751-12.285,67.304-12.627l5.213-0.073
						L205.131,119.959z M142.236,73.417l49.649,27.944l1.54-37.799C175.504,64.334,157.896,67.667,142.236,73.417z"/>
				</g>
				<path fill="#FFF0D9" d="M199.617,86.152c3.257,1.66,3.304,4.416-0.015,6.156c-3.379,1.772-8.851,1.772-12.105,0
					c-3.197-1.74-2.971-4.496,0.4-6.156C191.212,84.524,196.411,84.524,199.617,86.152z"/>
				<path fill="#FFF0D9" d="M183.389,74.96c2.924,1.462,2.739,3.89-0.519,5.422c-3.31,1.552-8.439,1.552-11.349-0.006
					c-2.866-1.529-2.437-3.957,0.859-5.416C175.626,73.519,180.511,73.519,183.389,74.96z"/>
				<path fill="#FFF0D9" d="M180.54,63.716c2.712,1.282,2.495,3.4-0.565,4.734c-3.113,1.355-7.896,1.355-10.594,0
					c-2.657-1.334-2.234-3.452,0.87-4.734C173.299,62.458,177.874,62.458,180.54,63.716z"/>
				<path fill="#FFF0D9" d="M160.443,76.73c2.758,1.494,2.245,3.971-1.245,5.532c-3.557,1.59-8.735,1.59-11.473,0
					c-2.689-1.561-1.929-4.038,1.601-5.532C152.796,75.259,157.733,75.259,160.443,76.73z"/>
			</g>
			<g>
				<g>
					<path fill="#30A4C4" d="M134.346,73.359l-13.684-7.902c-25.392,9.825-48.399,25.116-62.091,45.402h30.152
						C97.374,94.57,114.399,81.815,134.346,73.359z"/>
					<path fill="#FFF0D9" d="M93.466,114.798h-44.39l2.782-3.939c14.446-20.431,38.106-36.479,65.81-47.018l4.508-1.714
						l19.854,11.174l-4.305,1.863c-19.584,8.456-34.86,20.805-42.292,35.695L93.466,114.798z M67.877,107.065h16.451
						c9.077-13.797,24.066-25.276,42.408-33.599l-7.577-4.491C97.58,78.166,79.446,91.136,67.877,107.065z"/>
				</g>
				<g>
					<path fill="#30A4C4" d="M134.346,73.359c-19.947,8.457-36.972,21.211-45.623,37.5H199.28L134.346,73.359z"/>
					<path fill="#FFF0D9" d="M215.771,114.798H79.794l2.219-3.939c9.332-16.573,27.025-30.105,49.025-39.261l4.581-1.906
						L215.771,114.798z M97.528,107.065h85.861l-50.264-29.807C117.381,84.812,104.829,95.011,97.528,107.065z"/>
				</g>
				<path fill="#FFF0D9" d="M169.522,92.67c4.74,0,8.346,2.042,8.05,4.624c-0.305,2.648-4.586,4.85-9.562,4.85
					c-4.969,0-8.552-2.202-8.012-4.85C160.53,94.712,164.788,92.67,169.522,92.67z"/>
				<path fill="#FFF0D9" d="M140.441,90.335c4.673,0,7.931,1.99,7.252,4.508c-0.702,2.584-5.263,4.729-10.168,4.729
					c-4.908,0-8.117-2.144-7.186-4.729C131.248,92.325,135.759,90.335,140.441,90.335z"/>
				<path fill="#FFF0D9" d="M121.333,82.3c4.479,0,7.4,1.825,6.504,4.128c-0.919,2.364-5.491,4.325-10.179,4.325
					c-4.691,0-7.551-1.961-6.417-4.325C112.343,84.125,116.854,82.3,121.333,82.3z"/>
				<path fill="#FFF0D9" d="M121.559,101.44c4.952,0,8.195,2.233,7.212,5.062c-1.01,2.904-6.075,5.323-11.285,5.323
					c-5.213,0-8.38-2.419-7.113-5.323C111.612,103.673,116.601,101.44,121.559,101.44z"/>
			</g>
			<g>
				<g>
					<path fill="#30A4C4" d="M88.724,110.859H58.571c-14.536,23.109-15.972,51.684,5.541,78.941l37.312-21.548
						C82.722,149.418,80.319,128.613,88.724,110.859z"/>
					<path fill="#FFF0D9" d="M59.053,200.545l-4.073-5.471c-21.147-28.418-20.01-58.67-3.188-84.111l2.576-3.898h42.745
						l-1.619,3.669c-7.658,17.345-3.82,36.488,13.483,53.155l4.534,4.362L59.053,200.545z M63.1,114.798
						c-10.44,20.353-9.55,43.289,5.933,64.877l20.512-11.546c-14.011-17.324-16.486-36.149-9.353-53.332H63.1z"/>
				</g>
				<g>
					<path fill="#30A4C4" d="M88.724,110.859c-8.404,17.754-6.002,38.559,12.7,57.393l99.367-57.39L88.724,110.859z"/>
					<path fill="#FFF0D9" d="M98.032,177.431l-4.424-4.665c-18.76-19.796-21.632-42.05-11.665-61.776l1.987-3.925h132.754
						L98.032,177.431z M93.925,114.798c-4.902,14.708-1.651,30.451,10.893,44.74l79.488-44.737L93.925,114.798z"/>
				</g>
				<path fill="#FFF0D9" d="M153.434,110.087c4.082-2.077,9.944-2.08,13.231,0c3.354,2.121,2.852,5.648-1.256,7.885
					c-4.201,2.283-10.415,2.283-13.736,0C148.418,115.735,149.271,112.208,153.434,110.087z"/>
				<path fill="#FFF0D9" d="M122.812,121.943c4.633-2.321,10.829-2.321,13.988,0c3.22,2.37,2.158,6.318-2.536,8.828
					c-4.798,2.559-11.38,2.562-14.542,0C116.627,128.262,118.081,124.313,122.812,121.943z"/>
				<path fill="#FFF0D9" d="M89.217,125.23c5.056-2.393,11.348-2.393,14.191-0.002c2.91,2.439,1.221,6.509-3.925,9.094
					c-5.265,2.643-11.955,2.643-14.766-0.006C81.961,131.737,84.044,127.667,89.217,125.23z"/>
				<path fill="#FFF0D9" d="M121.274,140.808c5.039-2.727,11.757-2.73,15.178,0c3.499,2.796,2.341,7.461-2.773,10.433
					c-5.236,3.046-12.41,3.046-15.839,0C114.495,148.269,116.117,143.604,121.274,140.808z"/>
			</g>
			<g>
				<g>
					<path fill="#30A4C4" d="M101.424,168.252L64.112,189.8c25.71,29.967,75.626,51.694,138.893,51.694l-0.352-40.357
						C158.804,201.137,122.58,187.729,101.424,168.252z"/>
					<path fill="#FFF0D9" d="M214.327,252.002h-11.229c-65.743,0-120.211-22.523-148.01-56.789l-4.282-5.273l53.548-30.135
						l4.47,3.945c20.855,18.397,54.99,29.677,93.766,29.677h9.35L214.327,252.002z M77.627,189.527
						c24.994,23.984,66.144,39.748,114.725,41.854l0.517-22.337c-38.806-1.787-72.468-13.6-94.375-31.893L77.627,189.527z"/>
				</g>
				<g>
					<path fill="#30A4C4" d="M101.424,168.252c21.156,19.477,57.38,32.885,101.229,32.885l-0.794-90.89L101.424,168.252z"/>
					<path fill="#FFF0D9" d="M212.584,209.271h-9.86c-45.898,0-85.699-13.977-108.967-36.36l-4.688-4.508l119.12-67.042
						L212.584,209.271z M114.005,167.956c19.253,14.458,47.343,23.678,79.235,25.244l1.703-73.241L114.005,167.956z"/>
				</g>
				<path fill="#FFF0D9" d="M164.188,130.797c0.551-3.53,5.462-6.312,10.986-6.312c5.526,0,9.817,2.782,9.582,6.312
					c-0.241,3.641-5.178,6.684-11.026,6.684C167.883,137.481,163.619,134.438,164.188,130.797z"/>
				<path fill="#FFF0D9" d="M154.301,155.83c0.777-4.334,6.341-7.741,12.451-7.741s10.751,3.407,10.362,7.741
					c-0.406,4.491-6.017,8.245-12.518,8.245C158.09,164.075,153.492,160.321,154.301,155.83z"/>
				<path fill="#FFF0D9" d="M126.409,179.072c1.366-5.157,7.824-9.195,14.473-9.195s11.325,4.038,10.423,9.195
					c-0.94,5.35-7.496,9.852-14.615,9.852S124.991,184.422,126.409,179.072z"/>
				<path fill="#FFF0D9" d="M180.413,170.3c0.354-4.832,5.851-8.633,12.297-8.633c6.443,0,11.731,3.801,11.81,8.633
					c0.087,5.019-5.425,9.226-12.315,9.226C185.321,179.525,180.044,175.318,180.413,170.3z"/>
			</g>
			<g>
				<g>
					<path fill="#30A4C4" d="M202.653,201.137l0.352,40.357c58.36-1.438,109.185-21.571,135.168-54.49l-37.138-21.147
						C279.667,187.387,243.118,200.034,202.653,201.137z"/>
					<path fill="#FFF0D9" d="M191.862,252.292l1.363-58.616l9.051-0.249c38.649-1.027,71.777-13.112,91.231-31.858l4.308-4.154
						l53.29,29.59l-3.847,5.175c-25.674,34.492-78.386,58.151-143.862,59.823L191.862,252.292z M212.563,208.784l0.911,22.325
						c48.256-3.308,88.155-19.93,111.557-44.228l-20.771-12.138C283.726,193.397,251.093,205.987,212.563,208.784z"/>
				</g>
				<g>
					<path fill="#30A4C4" d="M202.653,201.137c40.465-1.103,77.014-13.75,98.382-35.28l-99.179-56.471L202.653,201.137z"/>
					<path fill="#FFF0D9" d="M192.857,209.55l2.538-108.98l117.617,65.287l-4.2,4.427c-21.542,22.743-60.052,37.688-105.762,38.982
						L192.857,209.55z M208.911,119.017l3.008,73.911c31.632-2.443,58.854-12.376,76.909-27.205L208.911,119.017z"/>
				</g>
				<path fill="#FFF0D9" d="M200.588,140.422c-4.145-2.721-4.084-7.003-0.022-9.567c3.965-2.512,10.408-2.512,14.551,0
					c4.227,2.564,4.58,6.846,0.629,9.567C211.69,143.204,204.829,143.204,200.588,140.422z"/>
				<path fill="#FFF0D9" d="M225.049,162.166c-4.824-3.226-5.219-8.309-1.088-11.343c4.029-2.96,11.026-2.96,15.812,0
					c4.9,3.04,5.802,8.117,1.811,11.343C237.485,165.49,229.992,165.49,225.049,162.166z"/>
				<path fill="#FFF0D9" d="M234.984,192.435c-5.509-4.027-6.155-10.316-1.691-14.059c4.346-3.649,12.108-3.649,17.562,0
					c5.602,3.742,6.863,10.031,2.576,14.059C249.024,196.571,240.645,196.571,234.984,192.435z"/>
				<path fill="#FFF0D9" d="M258.032,158.273c-5.149-3.134-6.179-8.071-2.486-11.014c3.604-2.878,10.499-2.878,15.587,0
					c5.213,2.943,6.722,7.88,3.186,11.02C270.697,161.493,263.312,161.493,258.032,158.273z"/>
			</g>
			<g>
				<g>
					<path fill="#30A4C4" d="M301.035,165.856l37.138,21.147c18.502-25.558,18.554-53.596,1.932-78.228h-29.855
						C320.283,127.67,317.106,148.083,301.035,165.856z"/>
					<path fill="#FFF0D9" d="M343.517,197.69l-54.216-31.689l4.064-4.287c16.042-16.917,18.723-35.938,10.237-52.938l-1.856-3.722
						h42.368l2.628,3.722c17.573,24.855,20.027,54.713,0.615,83.258L343.517,197.69z M312.558,165.601l20.426,11.343
						c14.159-21.688,13.962-44.374,2.796-64.306h-16.897C326.778,129.477,325.362,148.136,312.558,165.601z"/>
				</g>
				<g>
					<path fill="#30A4C4" d="M301.035,165.856c16.071-17.773,19.248-38.187,9.214-57.08H200.788L301.035,165.856z"/>
					<path fill="#FFF0D9" d="M304.742,175.022l-119.717-69.968h129.769l2.095,3.722c10.861,19.282,9.307,41.322-7.937,61.361
						L304.742,175.022z M217.138,112.637l80.19,44.516c11.436-14.454,13.675-30.087,7.998-44.516H217.138z"/>
				</g>
				<path fill="#FFF0D9" d="M236.56,130.333c-5.674,0-10.594-2.857-10.988-6.289c-0.383-3.325,3.666-5.95,9.039-5.95
					c5.36,0,10.249,2.625,10.928,5.95C246.24,127.476,242.226,130.333,236.56,130.333z"/>
				<path fill="#FFF0D9" d="M273.332,133.771c-5.753,0-11.216-2.941-12.17-6.475c-0.925-3.423,2.759-6.121,8.198-6.121
					c5.442,0,10.829,2.698,12.059,6.121C282.692,130.826,279.09,133.771,273.332,133.771z"/>
				<path fill="#FFF0D9" d="M306.956,147.19c-6.089,0-12.306-3.29-13.843-7.232c-1.488-3.814,1.995-6.817,7.733-6.817
					s11.836,3.002,13.663,6.817C316.401,143.9,313.042,147.19,306.956,147.19z"/>
				<path fill="#FFF0D9" d="M285.373,118.921c-5.387,0-10.649-2.582-11.729-5.689c-1.044-3.008,2.274-5.387,7.386-5.387
					c5.114,0,10.299,2.378,11.612,5.387C293.998,116.339,290.763,118.921,285.373,118.921z"/>
			</g>
			<g>
				<g>
					<path fill="#30A4C4" d="M310.249,108.776h29.855c-13.402-18.578-35.501-33.984-63.144-44.228l-13.725,7.812
						C285.068,81.11,301.474,93.886,310.249,108.776z"/>
					<path fill="#FFF0D9" d="M349.654,112.637h-43.902l-2.083-3.736c-8.151-14.629-23.877-26.622-43.667-34.698l-4.511-1.842
						l19.938-11.064l4.418,1.61c27.762,10.115,51.724,25.719,66.826,45.768L349.654,112.637z M314.417,105.054h16.31
						c-12.12-15.624-30.553-28.237-52.24-37.076l-7.586,4.433C289.411,80.391,304.757,91.533,314.417,105.054z"/>
				</g>
				<g>
					<path fill="#30A4C4" d="M310.249,108.776c-8.775-14.891-25.181-27.666-47.013-36.415l-63.945,36.415H310.249z"/>
					<path fill="#FFF0D9" d="M319.294,112.637H182.939l78.98-43.841l4.485,1.764c22.181,8.732,40.313,21.844,50.412,38.089
						L319.294,112.637z M215.056,105.054h86.258c-7.898-11.807-20.843-21.687-36.798-28.91L215.056,105.054z"/>
				</g>
				<path fill="#FFF0D9" d="M246.524,109.539c-3.215,2.109-9.179,2.109-13.202,0c-3.939-2.062-4.4-5.332-1.163-7.293
					c3.176-1.923,8.821-1.923,12.734,0C248.886,104.208,249.666,107.474,246.524,109.539z"/>
				<path fill="#FFF0D9" d="M269.218,98.948c-2.828,1.897-8.49,1.897-12.528,0c-3.957-1.862-4.752-4.81-1.883-6.582
					c2.813-1.74,8.187-1.74,12.105-0.003C270.912,94.138,271.991,97.085,269.218,98.948z"/>
				<path fill="#FFF0D9" d="M296.588,96.386c-2.526,1.851-8.116,1.851-12.36,0.003c-4.166-1.816-5.355-4.688-2.768-6.417
					c2.535-1.7,7.841-1.7,11.955,0C297.606,91.702,299.077,94.573,296.588,96.386z"/>
				<path fill="#FFF0D9" d="M260.756,85.923c-2.715,1.653-8,1.653-11.702,0c-3.635-1.627-4.272-4.204-1.525-5.758
					c2.7-1.529,7.73-1.529,11.339,0C262.537,81.719,263.425,84.295,260.756,85.923z"/>
			</g>
		</g>
		<g>
			<rect x="22.449" y="90.11" fill="#FFF0D9" width="355.188" height="59.924"/>
			<path fill="#30A4C4" d="M365.073,99.241h-21.821v10.13c0,3.619-2.924,6.547-6.547,6.547c-3.617,0-6.545-2.929-6.545-6.547v-10.13
				h-21.284v19.042c0,3.619-2.927,6.547-6.544,6.547c-3.62,0-6.548-2.929-6.548-6.547V99.241h-21.283v10.13
				c0,3.619-2.925,6.547-6.548,6.547c-3.617,0-6.544-2.929-6.544-6.547v-10.13h-21.284v19.042c0,3.619-2.927,6.547-6.545,6.547
				c-3.62,0-6.547-2.929-6.547-6.547V99.241h-21.821v10.13c0,3.619-2.924,6.547-6.547,6.547c-3.618,0-6.544-2.929-6.544-6.547
				v-10.13h-21.284v19.042c0,3.619-2.927,6.547-6.544,6.547c-3.62,0-6.547-2.929-6.547-6.547V99.241h-21.284v10.13
				c0,3.619-2.927,6.547-6.544,6.547c-3.618,0-6.547-2.929-6.547-6.547v-10.13h-21.281v19.042c0,3.619-2.93,6.547-6.547,6.547
				c-3.617,0-6.544-2.929-6.544-6.547V99.241H67.712v10.13c0,3.619-2.927,6.547-6.547,6.547c-3.617,0-6.544-2.929-6.544-6.547
				v-10.13h-21.8v40.917h4.909h49.106h84.001h194.065L365.073,99.241z"/>
		</g>
	</g>
</g>
<g id="Layer_5">
	<g>
		<g>
			<g>
				<g>
					<path fill="#30A4C4" d="M277.441,70.396l21.289-21.289c-26.17-24.825-61.502-40.085-100.42-40.085V39.13
						C228.915,39.13,256.728,51.015,277.441,70.396z"/>
					<path fill="#FFF0D9" d="M277.596,79.716l-4.732-4.427c-20.302-18.998-46.778-29.459-74.553-29.459h-6.7V2.322h6.7
						c39.229,0,76.531,14.889,105.031,41.924l4.991,4.734L277.596,79.716z M205.011,32.61c26.57,1.441,51.78,11.426,72.156,28.585
						l11.843-11.844c-23.579-20.281-52.972-31.994-83.999-33.469V32.61z"/>
				</g>
				<g>
					<path fill="#30A4C4" d="M277.441,70.396c-20.714-19.381-48.526-31.266-79.131-31.266v110.396L277.441,70.396z"/>
					<path fill="#FFF0D9" d="M191.61,165.7V32.43h6.7c31.188,0,60.915,11.746,83.708,33.073l5.06,4.733L191.61,165.7z
						 M205.011,46.035v87.314l62.642-62.639C249.85,56.037,228.022,47.436,205.011,46.035z"/>
				</g>
				<circle fill="#FFF0D9" cx="223.447" cy="116.917" r="9.378"/>
				<circle fill="#FFF0D9" cx="228.362" cy="84.308" r="9.378"/>
				<circle fill="#FFF0D9" cx="246.228" cy="59.293" r="9.377"/>
				<circle fill="#FFF0D9" cx="206.026" cy="68.228" r="9.377"/>
			</g>
			<g>
				<g>
					<path fill="#30A4C4" d="M198.311,39.131V9.022c-36.061,0.953-71.834,15.145-99.352,42.664l21.289,21.289
						C141.888,51.334,169.958,40.072,198.311,39.131z"/>
					<path fill="#FFF0D9" d="M120.248,82.451L89.484,51.687l4.737-4.737C121.959,19.21,158.863,3.362,198.133,2.324l6.878-0.182
						v43.471l-6.478,0.214c-27.79,0.922-53.911,12.247-73.547,31.885L120.248,82.451z M108.546,51.799l11.83,11.829
						c19.807-17.77,44.692-28.535,71.234-30.808V16.069C160.595,18.402,131.53,30.903,108.546,51.799z"/>
				</g>
				<g>
					<path fill="#30A4C4" d="M198.311,39.131c-28.353,0.941-56.423,12.203-78.062,33.844l78.06,78.062L198.311,39.131z"/>
					<path fill="#FFF0D9" d="M205.008,167.213l-94.234-94.237l4.737-4.737c22.05-22.054,51.376-34.768,82.577-35.803l6.923-0.23
						L205.008,167.213z M129.866,73.12l61.742,61.741l0.002-88.585C168.646,48.485,147.127,57.839,129.866,73.12z"/>
				</g>
				<path fill="#FFF0D9" d="M199.656,103.574c3.662,3.662,3.665,9.6,0,13.263c-3.661,3.662-9.6,3.662-13.264-0.001
					c-3.659-3.662-3.659-9.601,0-13.262C190.056,99.911,195.991,99.913,199.656,103.574z"/>
				<circle fill="#FFF0D9" cx="173.442" cy="83.672" r="9.377"/>
				<path fill="#FFF0D9" d="M175.017,46.719c3.664,3.663,3.664,9.602,0.002,13.263c-3.662,3.663-9.603,3.663-13.264,0
					c-3.662-3.662-3.662-9.6,0.002-13.263C165.417,43.057,171.358,43.057,175.017,46.719z"/>
				<circle fill="#FFF0D9" cx="146.278" cy="88.096" r="9.377"/>
			</g>
			<g>
				<g>
					<path fill="#30A4C4" d="M120.248,72.976L98.959,51.687c-24.825,26.17-40.086,61.5-40.086,100.42h30.109
						C88.981,121.502,100.867,93.688,120.248,72.976z"/>
					<path fill="#FFF0D9" d="M95.682,158.807h-43.51v-6.7c0-39.229,14.89-76.53,41.926-105.032l4.734-4.991l30.735,30.737
						l-4.429,4.732c-18.996,20.302-29.457,46.779-29.457,74.554V158.807z M65.732,145.406h16.729
						c1.442-26.573,11.427-51.78,28.586-72.156L99.205,61.407C78.921,84.986,67.208,114.378,65.732,145.406z"/>
				</g>
				<g>
					<path fill="#30A4C4" d="M120.248,72.976c-19.381,20.713-31.267,48.527-31.267,79.131h110.397L120.248,72.976z"/>
					<path fill="#FFF0D9" d="M215.553,158.807H82.281v-6.7c0-31.186,11.747-60.915,33.075-83.708l4.732-5.058L215.553,158.807z
						 M95.886,145.406h87.317l-62.642-62.641C105.887,100.565,97.286,122.395,95.886,145.406z"/>
				</g>
				<path fill="#FFF0D9" d="M166.767,117.592c5.182,0,9.38,4.199,9.38,9.378c0,5.18-4.198,9.377-9.38,9.377
					c-5.177,0-9.378-4.198-9.378-9.377C157.389,121.791,161.59,117.592,166.767,117.592z"/>
				<path fill="#FFF0D9" d="M134.161,112.677c5.177,0,9.378,4.198,9.378,9.38c0,5.177-4.201,9.375-9.378,9.375
					c-5.182,0-9.38-4.198-9.38-9.375C124.781,116.875,128.979,112.677,134.161,112.677z"/>
				<circle fill="#FFF0D9" cx="109.146" cy="104.189" r="9.378"/>
				<path fill="#FFF0D9" d="M118.081,135.012c5.177,0,9.378,4.199,9.378,9.378c0,5.18-4.201,9.378-9.378,9.378
					c-5.182,0-9.38-4.199-9.38-9.378C108.7,139.211,112.898,135.012,118.081,135.012z"/>
			</g>
			<g>
				<g>
					<path fill="#30A4C4" d="M88.981,152.106H58.873c0.953,36.061,15.146,71.834,42.667,99.352l21.289-21.289
						C101.187,208.529,89.924,180.459,88.981,152.106z"/>
					<path fill="#FFF0D9" d="M101.54,260.933l-4.737-4.737c-27.741-27.738-43.591-64.642-44.627-103.911l-0.183-6.878h43.471
						l0.217,6.477c0.921,27.791,12.247,53.911,31.887,73.549l4.74,4.737L101.54,260.933z M65.918,158.807
						c2.335,31.015,14.838,60.079,35.734,83.062l11.828-11.827c-17.769-19.806-28.534-44.69-30.811-71.234H65.918z"/>
				</g>
				<g>
					<path fill="#30A4C4" d="M88.981,152.106c0.942,28.353,12.205,56.423,33.847,78.062l78.06-78.06L88.981,152.106z"/>
					<path fill="#FFF0D9" d="M122.829,239.644l-4.737-4.737c-22.054-22.048-34.768-51.377-35.807-82.577l-0.228-6.923l135.007,0.002
						L122.829,239.644z M96.127,158.807c2.209,22.964,11.565,44.482,26.846,61.741l61.741-61.738L96.127,158.807z"/>
				</g>
				<path fill="#FFF0D9" d="M153.424,150.761c3.664-3.662,9.6-3.664,13.265,0c3.661,3.662,3.661,9.601,0,13.265
					c-3.665,3.659-9.601,3.659-13.265,0C149.763,160.361,149.765,154.425,153.424,150.761z"/>
				<circle fill="#FFF0D9" cx="133.524" cy="176.974" r="9.377"/>
				<path fill="#FFF0D9" d="M96.572,175.4c3.661-3.664,9.6-3.664,13.262-0.003s3.662,9.603,0,13.265
					c-3.662,3.661-9.601,3.661-13.262-0.003C92.908,185,92.908,179.059,96.572,175.4z"/>
				<circle fill="#FFF0D9" cx="137.947" cy="204.14" r="9.377"/>
			</g>
			<g>
				<g>
					<path fill="#30A4C4" d="M122.829,230.169l-21.289,21.289c26.17,24.825,61.5,40.086,100.419,40.086v-30.109
						C171.355,261.435,143.542,249.55,122.829,230.169z"/>
					<path fill="#FFF0D9" d="M208.66,298.245h-6.701c-39.23,0-76.532-14.891-105.031-41.924l-4.991-4.738l30.737-30.733l4.732,4.425
						c20.302,18.999,46.779,29.46,74.553,29.46h6.701V298.245z M111.26,251.212c23.579,20.283,52.971,31.994,83.999,33.47v-16.729
						c-26.57-1.44-51.78-11.423-72.156-28.581L111.26,251.212z"/>
				</g>
				<g>
					<path fill="#30A4C4" d="M122.829,230.169c20.713,19.381,48.527,31.266,79.13,31.266V151.038L122.829,230.169z"/>
					<path fill="#FFF0D9" d="M208.66,268.136h-6.701c-31.188,0-60.914-11.746-83.708-33.072l-5.059-4.734l95.469-95.466V268.136z
						 M132.617,229.854c17.802,14.673,39.63,23.272,62.642,24.677v-87.316L132.617,229.854z"/>
				</g>
				<circle fill="#FFF0D9" cx="176.823" cy="183.649" r="9.377"/>
				<path fill="#FFF0D9" d="M162.53,216.255c0-5.177,4.198-9.377,9.38-9.377c5.177,0,9.375,4.2,9.375,9.377
					c0,5.183-4.199,9.381-9.375,9.381C166.728,225.636,162.53,221.438,162.53,216.255z"/>
				<circle fill="#FFF0D9" cx="154.042" cy="241.271" r="9.378"/>
				<path fill="#FFF0D9" d="M184.865,232.336c0-5.177,4.199-9.378,9.378-9.378c5.18,0,9.378,4.201,9.378,9.378
					c0,5.183-4.198,9.38-9.378,9.38C189.064,241.716,184.865,237.519,184.865,232.336z"/>
			</g>
			<g>
				<g>
					<path fill="#30A4C4" d="M201.959,261.435v30.109c36.061-0.953,71.834-15.146,99.352-42.667l-21.289-21.289
						C258.383,249.23,230.312,260.493,201.959,261.435z"/>
					<path fill="#FFF0D9" d="M195.259,298.422v-43.47l6.478-0.215c27.79-0.924,53.91-12.246,73.549-31.886l4.736-4.738
						l30.764,30.764l-4.736,4.738c-27.739,27.739-64.642,43.587-103.912,44.623L195.259,298.422z M208.66,267.745v16.75
						c31.014-2.331,60.078-14.832,83.064-35.728l-11.831-11.83C260.086,254.709,235.201,265.471,208.66,267.745z"/>
				</g>
				<g>
					<path fill="#30A4C4" d="M201.959,261.435c28.354-0.941,56.424-12.204,78.062-33.847l-78.06-78.06L201.959,261.435z"/>
					<path fill="#FFF0D9" d="M195.259,268.36l0.003-135.008l94.234,94.236l-4.736,4.738c-22.052,22.053-51.378,34.768-82.578,35.804
						L195.259,268.36z M208.662,165.706l-0.002,88.584c22.963-2.209,44.481-11.563,61.743-26.844L208.662,165.706z"/>
				</g>
				<path fill="#FFF0D9" d="M200.614,196.992c-3.662-3.664-3.665-9.6,0-13.265c3.661-3.661,9.6-3.661,13.264,0
					c3.659,3.665,3.659,9.601,0,13.265C210.214,200.654,204.278,200.651,200.614,196.992z"/>
				<circle fill="#FFF0D9" cx="226.827" cy="216.894" r="9.377"/>
				<path fill="#FFF0D9" d="M225.253,253.845c-3.664-3.662-3.664-9.6-0.002-13.262c3.66-3.662,9.603-3.662,13.264,0
					c3.662,3.662,3.662,9.6-0.002,13.262C234.854,257.509,228.911,257.509,225.253,253.845z"/>
				<path fill="#FFF0D9" d="M247.361,219.101c-3.662-3.662-3.664-9.601-0.003-13.262c3.665-3.664,9.601-3.664,13.265,0
					s3.664,9.6,0,13.264C256.961,222.765,251.023,222.762,247.361,219.101z"/>
			</g>
			<g>
				<g>
					<path fill="#30A4C4" d="M280.021,227.588l21.289,21.289c24.825-26.167,40.087-61.501,40.087-100.418h-30.109
						C311.288,179.064,299.402,206.875,280.021,227.588z"/>
					<path fill="#FFF0D9" d="M301.437,258.482l-30.734-30.736l4.428-4.733c18.996-20.305,29.458-46.781,29.458-74.554v-6.7h43.51
						v6.7c0,39.229-14.89,76.527-41.927,105.029L301.437,258.482z M289.222,227.316l11.843,11.84
						c20.284-23.576,31.997-52.968,33.473-83.999h-16.729C316.366,181.73,306.38,206.938,289.222,227.316z"/>
				</g>
				<g>
					<path fill="#30A4C4" d="M280.021,227.588c19.381-20.713,31.267-48.523,31.267-79.129H200.891L280.021,227.588z"/>
					<path fill="#FFF0D9" d="M280.182,237.226l-95.465-95.467h133.272v6.7c0,31.187-11.746,60.913-33.075,83.709L280.182,237.226z
						 M217.065,155.157l62.643,62.643c14.675-17.8,23.274-39.631,24.676-62.643H217.065z"/>
				</g>
				<path fill="#FFF0D9" d="M233.503,182.975c-5.183,0-9.381-4.198-9.381-9.381c0-5.177,4.198-9.375,9.381-9.375
					c5.177,0,9.377,4.198,9.377,9.375C242.88,178.776,238.68,182.975,233.503,182.975z"/>
				<path fill="#FFF0D9" d="M266.108,187.89c-5.178,0-9.378-4.198-9.378-9.38c0-5.178,4.2-9.376,9.378-9.376
					c5.183,0,9.38,4.198,9.38,9.376C275.488,183.691,271.291,187.89,266.108,187.89z"/>
				<path fill="#FFF0D9" d="M291.125,205.755c-5.18,0-9.381-4.197-9.381-9.38c0-5.177,4.201-9.375,9.381-9.375
					c5.179,0,9.38,4.198,9.38,9.375C300.505,201.558,296.304,205.755,291.125,205.755z"/>
				<path fill="#FFF0D9" d="M282.188,165.554c-5.177,0-9.377-4.198-9.377-9.381c0-5.176,4.2-9.376,9.377-9.376
					c5.183,0,9.381,4.2,9.381,9.376C291.569,161.355,287.371,165.554,282.188,165.554z"/>
			</g>
			<g>
				<g>
					<path fill="#30A4C4" d="M311.288,148.459h30.109c-0.953-36.061-15.147-71.834-42.667-99.352l-21.289,21.289
						C299.084,92.036,310.346,120.106,311.288,148.459z"/>
					<path fill="#FFF0D9" d="M348.277,155.157h-43.47l-0.218-6.476c-0.921-27.79-12.246-53.911-31.886-73.546l-4.74-4.739
						l30.767-30.765l4.737,4.737c27.74,27.739,43.59,64.643,44.626,103.914L348.277,155.157z M317.601,141.759h16.75
						c-2.334-31.015-14.837-60.08-35.733-83.063L286.79,70.524C304.559,90.331,315.323,115.215,317.601,141.759z"/>
				</g>
				<g>
					<path fill="#30A4C4" d="M311.288,148.459c-0.942-28.353-12.204-56.423-33.847-78.063l-78.06,78.061L311.288,148.459z"/>
					<path fill="#FFF0D9" d="M318.213,155.157H183.207l94.235-94.237l4.737,4.737c22.053,22.05,34.769,51.377,35.807,82.579
						L318.213,155.157z M215.557,141.756l88.587,0.002c-2.21-22.965-11.566-44.483-26.847-61.743L215.557,141.756z"/>
				</g>
				<path fill="#FFF0D9" d="M246.845,149.804c-3.664,3.663-9.6,3.663-13.264,0c-3.662-3.662-3.662-9.6,0-13.265
					c3.664-3.659,9.6-3.659,13.264,0C250.507,140.204,250.504,146.14,246.845,149.804z"/>
				<circle fill="#FFF0D9" cx="266.746" cy="123.591" r="9.377"/>
				<path fill="#FFF0D9" d="M303.697,125.166c-3.661,3.664-9.6,3.664-13.262,0.002c-3.661-3.662-3.661-9.603,0-13.264
					c3.662-3.662,9.601-3.662,13.262,0.002C307.362,115.565,307.362,121.506,303.697,125.166z"/>
				<circle fill="#FFF0D9" cx="262.322" cy="96.426" r="9.377"/>
			</g>
		</g>
		<g>
			<g>
				<path fill="#FFF0D9" d="M209.217,234.058h-11.898c-5.182,0-9.38-4.198-9.38-9.38v-11.333
					c-13.976-3.167-25.513-10.5-33.687-21.503c-2.934-3.952-2.319-9.495,1.411-12.707l13.83-11.898
					c2.044-1.756,4.753-2.538,7.412-2.18c2.67,0.371,5.046,1.873,6.533,4.122c1.479,2.238,2.926,4.035,4.501,5.499v-13.076
					c-21.697-6.891-34.412-21.297-34.412-39.513c0-21.348,13.749-37.301,34.412-41.246v-3.135c0-5.181,4.199-9.38,9.38-9.38h11.898
					c5.179,0,9.381,4.199,9.381,9.38v3.219c10.646,2.168,20.231,7.811,30.164,17.596c1.787,1.761,2.795,4.166,2.798,6.678
					c0,2.51-1.006,4.916-2.793,6.679l-12.542,12.379c-3.636,3.594-9.478,3.609-13.137,0.041c-1.648-1.607-3.119-2.988-4.49-4.162
					v10.567c17.75,6.282,35.537,17.466,35.537,43.479c0,21.331-13.107,35.679-35.537,39.591v10.901
					C218.598,229.859,214.396,234.058,209.217,234.058z M202.15,197.344c0.393,0.235,0.764,0.496,1.115,0.787
					c0.35-0.291,0.725-0.552,1.114-0.787c-0.39-0.236-0.765-0.498-1.114-0.789c-0.026,0.024-0.059,0.048-0.085,0.071
					C202.852,196.888,202.506,197.129,202.15,197.344z M209.217,148.567c0.79,0,1.589,0.101,2.371,0.305
					c9.38,2.454,16.097,6.375,20.106,11.719c-3.832-5.408-11.283-9.943-25.157-14.076c-2.147-0.642-3.932-2.001-5.115-3.771
					c-2.051,0.996-4.417,1.222-6.647,0.594c-3.235-0.911-7.577-2.133-11.634-4.295c5.664,3.476,12.225,5.328,16.204,6.207
					c2.529,0.56,4.627,2.109,5.925,4.186C206.508,148.863,207.855,148.567,209.217,148.567z M202.15,97.328
					c0.388,0.232,0.761,0.496,1.115,0.786c0.355-0.291,0.727-0.554,1.117-0.786c-0.391-0.237-0.765-0.5-1.117-0.79
					C202.914,96.828,202.543,97.091,202.15,97.328z"/>
			</g>
			<g>
				<path fill="#30A4C4" d="M197.318,154.409c-18.174-4.02-34.412-14.312-34.412-32.321c0-21.548,16.237-32.483,34.412-32.802
					V77.708h11.898v11.579c12.38,0.319,22.352,5.464,32.962,15.918l-12.542,12.38c-6.433-6.271-11.898-10.933-20.42-12.218v32.159
					c22.671,6.755,35.538,16.402,35.538,36.66c0,21.227-16.081,30.231-35.538,31.197v19.295h-11.898v-19.295
					c-14.154-1.449-26.696-7.236-35.537-19.137l13.83-11.898c5.946,9.003,12.38,12.864,21.708,14.955V154.409z M197.318,105.367
					c-9.809,0.642-16.405,4.821-16.405,15.274c0,7.396,4.988,10.453,16.405,13.667V105.367z M209.217,189.303
					c8.359,0,17.524-3.217,17.524-14.634c0-9.324-7.071-13.989-17.524-16.721V189.303z"/>
			</g>
		</g>
	</g>
</g>
</svg>
